<?xml version="1.0" standalone="no"?>
<!DOCTYPE svg PUBLIC "-//W3C//DTD SVG 1.1//EN" "http://www.w3.org/Graphics/SVG/1.1/DTD/svg11.dtd" >
<svg>
<metadata>
Created by FontForge 20110222 at Fri Nov 15 12:52:44 2013
 By Orthosie Webhosting
Copyright (c) 1985, 1987, 1997, 1998, 2001 Adobe Systems Incorporated.  All Rights Reserved. Revised kerning Copyright 2010 International Typeface Corporation.
</metadata>
<defs>
<font id="LubalinforIBMDemi" horiz-adv-x="680" >
  <font-face 
    font-family="LubalinforIBMDemi"
    font-weight="600"
    font-stretch="normal"
    units-per-em="1000"
    panose-1="2 6 7 3 2 2 5 2 4 4"
    ascent="719"
    descent="-281"
    x-height="534"
    cap-height="714"
    bbox="-159 -280 1250 1017"
    underline-thickness="50"
    underline-position="-50"
    unicode-range="U+0020-FB02"
  />
<missing-glyph horiz-adv-x="520" 
d="M10 0v700h500v-700h-500zM260 395l170 255h-340zM290 350l170 -255v510zM90 50h340l-170 255zM60 605v-510l170 255z" />
    <glyph glyph-name=".notdef" horiz-adv-x="520" 
d="M10 0v700h500v-700h-500zM260 395l170 255h-340zM290 350l170 -255v510zM90 50h340l-170 255zM60 605v-510l170 255z" />
    <glyph glyph-name=".null" horiz-adv-x="0" 
 />
    <glyph glyph-name="nonmarkingreturn" horiz-adv-x="333" 
 />
    <glyph glyph-name="space" unicode=" " horiz-adv-x="288" 
 />
    <glyph glyph-name="exclam" unicode="!" horiz-adv-x="346" 
d="M236 141v-141h-126v141h126zM236 714v-500h-126v500h126z" />
    <glyph glyph-name="quotedbl" unicode="&#x22;" horiz-adv-x="420" 
d="M339 427h-73l-26 287h126zM145 427h-73l-26 287h126z" />
    <glyph glyph-name="numbersign" unicode="#" horiz-adv-x="600" 
d="M414 239l-35 -239h-76l34 239h-103l-34 -239h-76l34 239h-121v75h133l15 102h-119v75h130l32 223h75l-31 -223h103l32 223h76l-32 -223h113v-75h-124l-14 -102h109v-75h-121zM363 416h-103l-14 -102h102z" />
    <glyph glyph-name="dollar" unicode="$" horiz-adv-x="528" 
d="M44 212h119q-2 -47 29.5 -80.5t78.5 -33.5q43 0 72 26.5t29 69.5q0 45 -29.5 68t-80.5 38q-108 32 -147 60q-38 27 -59 69.5t-21 90.5q0 76 51 133t126 67v105h104v-116q36 -6 59 -38v43h94v-196h-111q-2 40 -29 65.5t-67 25.5q-39 0 -66.5 -23.5t-27.5 -62.5
q0 -42 26 -62.5t73 -32.5q109 -28 155 -61q86 -61 86 -165q0 -85 -53.5 -145t-138.5 -74v-103h-104v120l-8 1q-39 13 -59 40v-41h-101v212z" />
    <glyph glyph-name="percent" unicode="%" horiz-adv-x="880" 
d="M661 -11q-75 0 -126.5 52.5t-51.5 127.5q0 72 52 123.5t124 51.5q74 0 126.5 -51.5t52.5 -124.5q0 -74 -52 -126.5t-125 -52.5zM662 93q30 0 51 22t21 52t-21.5 52t-51.5 22t-52 -21.5t-22 -51.5q0 -31 22 -53t53 -22zM220 374q-75 0 -126.5 52.5t-51.5 127.5
q0 72 52 123.5t124 51.5q74 0 126.5 -52t52.5 -125q0 -74 -51.5 -126t-125.5 -52zM220 478q30 0 51.5 21.5t21.5 51.5q0 31 -21.5 52.5t-52.5 21.5q-30 0 -51.5 -21t-21.5 -51q0 -32 21.5 -53.5t52.5 -21.5zM328 0h-99l322 714h98z" />
    <glyph glyph-name="ampersand" unicode="&#x26;" horiz-adv-x="740" 
d="M685 73l-84 -83l-113 112q-85 -116 -215 -116q-91 0 -159 59t-68 148q0 67 38.5 113.5t107.5 89.5l-7 7q-36 38 -53.5 72.5t-17.5 80.5q0 76 53.5 126.5t130.5 50.5q73 0 126 -48t53 -120q0 -54 -31.5 -98t-82.5 -73l115 -113l70 152h148v-111h-71l-62 -126zM402 187
l-133 131q-92 -47 -92 -116q0 -42 31 -71t73 -29q43 0 70.5 22t50.5 63zM283 470l9 -8q73 46 73 95q0 29 -18.5 50t-47.5 21t-47.5 -20t-18.5 -50q0 -44 50 -88z" />
    <glyph glyph-name="quotesingle" unicode="'" horiz-adv-x="220" 
d="M145 427h-73l-26 287h126z" />
    <glyph glyph-name="parenleft" unicode="(" horiz-adv-x="380" 
d="M342 19v-152q-133 48 -214.5 165t-81.5 259q0 141 82 260t214 163v-149q-73 -42 -115.5 -115.5t-42.5 -157.5t42.5 -159t115.5 -114z" />
    <glyph glyph-name="parenright" unicode=")" horiz-adv-x="380" 
d="M46 565v149q132 -44 214 -163t82 -260q0 -142 -81.5 -259.5t-214.5 -164.5v152q73 39 115.5 114t42.5 159t-42.5 157t-115.5 116z" />
    <glyph glyph-name="asterisk" unicode="*" horiz-adv-x="380" 
d="M336 608v-63l-91 2l51 -75l-54 -36l-49 85l-44 -85l-55 31l48 78l-98 -6v64l94 -3l-55 78l55 36l52 -86l47 86l57 -34l-50 -77z" />
    <glyph glyph-name="plus" unicode="+" 
d="M86 404h208v208h92v-208h208v-92h-208v-208h-92v208h-208v92z" />
    <glyph glyph-name="comma" unicode="," horiz-adv-x="283" 
d="M114 0h-54v141h126v-160q0 -65 -24 -94q-16 -20 -34.5 -25.5t-48.5 -5.5h-19v68h13q19 0 28.5 10.5t11 21.5t1.5 31v13z" />
    <glyph glyph-name="hyphen" unicode="-" horiz-adv-x="308" 
d="M282 202h-256v121h256v-121z" />
    <glyph glyph-name="period" unicode="." horiz-adv-x="283" 
d="M186 141v-141h-126v141h126z" />
    <glyph glyph-name="slash" unicode="/" horiz-adv-x="600" 
d="M134 -195h-88l447 909h89z" />
    <glyph glyph-name="zero" unicode="0" horiz-adv-x="607" 
d="M561 460v-200q0 -62 -14 -106t-53 -84q-82 -84 -192 -84q-102 0 -181 74q-44 41 -60 87t-16 113v200q0 63 13.5 106.5t52.5 83.5q80 83 191 83q104 0 182 -73q44 -41 60.5 -87.5t16.5 -112.5zM179 460v-202q0 -69 23 -102q33 -48 101 -48q72 0 105 55q19 32 19 95v202
q0 69 -24 102q-33 49 -100 49q-72 0 -105 -56q-19 -30 -19 -95z" />
    <glyph glyph-name="one" unicode="1" horiz-adv-x="351" 
d="M256 714v-600h84v-114h-300v114h84v486h-105v114h237z" />
    <glyph glyph-name="two" unicode="2" horiz-adv-x="537" 
d="M380 190h117v-190h-469v114l257 249q2 2 12.5 12t14 13.5t12.5 13t12.5 14.5t10.5 14t10 16t7 16t5.5 18t1.5 18q0 44 -32 73.5t-76 29.5q-49 0 -80 -35t-29 -85h-129q-1 108 68.5 180t176.5 72q97 0 164.5 -68t67.5 -166q0 -49 -21.5 -93.5t-44.5 -69t-70 -67.5
l-169 -155h183v76z" />
    <glyph glyph-name="three" unicode="3" horiz-adv-x="552" 
d="M24 206h135q7 -44 38 -72.5t75 -28.5q47 0 81 33.5t34 80.5q0 54 -36 86.5t-90 32.5h-27l-6 -1v104h28q49 0 80 22.5t31 69.5q0 39 -25.5 64t-64.5 25q-36 0 -61 -23t-26 -60h-123q1 85 64 139.5t149 54.5q85 0 146.5 -52t61.5 -135q0 -45 -22 -86t-61 -61
q55 -20 88.5 -71.5t33.5 -112.5q0 -93 -74 -162q-70 -67 -173 -67q-102 0 -176.5 60t-79.5 160z" />
    <glyph glyph-name="four" unicode="4" horiz-adv-x="628" 
d="M600 294v-104h-107v-76h83v-114h-298v114h83v76h-329v104l308 420h153v-420h107zM361 294v259l-184 -259h184z" />
    <glyph glyph-name="five" unicode="5" horiz-adv-x="578" 
d="M16 191h140q15 -38 46.5 -60t73.5 -22q56 0 95 38.5t39 94.5t-39.5 93.5t-95.5 37.5q-80 0 -115 -70l-112 29l64 382h380v-114h-275l-28 -151q54 38 125 38q100 0 167 -72t67 -173q0 -112 -80 -184t-193 -72q-97 0 -168 55.5t-91 149.5z" />
    <glyph glyph-name="six" unicode="6" horiz-adv-x="580" 
d="M281 714h149l-166 -237q28 16 63 16q96 0 161 -73t65 -170q0 -111 -76.5 -187.5t-187.5 -76.5q-49 0 -99 21t-86 55q-78 78 -78 194q0 82 63 176zM290 115q54 0 94 38t40 92q0 56 -38.5 95.5t-94.5 39.5q-55 0 -94.5 -38t-39.5 -93t38.5 -94.5t94.5 -39.5z" />
    <glyph glyph-name="seven" unicode="7" horiz-adv-x="498" 
d="M24 714h474v-115l-266 -599h-147l276 600h-208v-115h-129v229z" />
    <glyph glyph-name="eight" unicode="8" horiz-adv-x="557" 
d="M402 398q56 -18 90.5 -70t34.5 -112q0 -100 -75 -165t-176 -65t-174 61t-73 161q0 59 34.5 110t89.5 73q-41 18 -65 57.5t-24 85.5q0 89 64 144t153 55q81 0 141.5 -54t60.5 -134q0 -97 -81 -147zM277 102q46 0 78.5 34t32.5 80q0 47 -34 80.5t-81 33.5t-80 -33.5
t-33 -80.5q0 -48 34.5 -81t82.5 -33zM274 438q37 0 63.5 26.5t26.5 63.5t-26.5 64.5t-62.5 27.5q-38 0 -65 -26.5t-27 -63.5q0 -39 26 -65.5t65 -26.5z" />
    <glyph glyph-name="nine" unicode="9" horiz-adv-x="586" 
d="M309 0h-165l178 237q-34 -17 -63 -17q-100 0 -166.5 75t-66.5 176q0 106 80 184t187 78q105 0 184 -73q82 -78 82 -196q0 -51 -14 -90t-45 -86zM293 335q57 0 95.5 39.5t38.5 96.5q0 54 -40 92.5t-94 38.5q-55 0 -95 -38.5t-40 -92.5q0 -57 39 -96.5t96 -39.5z" />
    <glyph glyph-name="colon" unicode=":" horiz-adv-x="320" 
d="M223 141v-141h-126v141h126zM223 514v-141h-126v141h126z" />
    <glyph glyph-name="semicolon" unicode=";" horiz-adv-x="320" 
d="M223 141v-160q0 -65 -24 -94q-16 -20 -34.5 -25.5t-48.5 -5.5h-19v68h13q19 0 28.5 10.5t11 21.5t1.5 31v13h-54v141h126zM223 514v-141h-126v141h126z" />
    <glyph glyph-name="less" unicode="&#x3c;" 
d="M605 158v-91l-540 247v88l540 249v-92l-450 -202z" />
    <glyph glyph-name="equal" unicode="=" 
d="M86 482h508v-93h-508v93zM86 326h508v-93h-508v93z" />
    <glyph glyph-name="greater" unicode="&#x3e;" 
d="M65 158l450 199l-450 202v92l540 -249v-88l-540 -247v91z" />
    <glyph glyph-name="question" unicode="?" horiz-adv-x="560" 
d="M348 141v-141h-126v141h126zM348 200h-126q0 58 24.5 99.5t75.5 88.5q20 18 26 24t19 21.5t17.5 30t4.5 32.5q0 43 -31 75t-73 32q-48 0 -78.5 -33t-31.5 -82h-129q-2 102 68 173.5t172 71.5q95 0 164.5 -69.5t69.5 -164.5q0 -46 -15.5 -80.5t-39 -57t-47.5 -43
t-44 -50.5t-26 -68z" />
    <glyph glyph-name="at" unicode="@" horiz-adv-x="835" 
d="M701 150l21 -45q-108 -119 -280 -119q-74 0 -147.5 25t-126.5 72q-55 49 -87.5 121.5t-32.5 147.5q0 156 115 268.5t272 112.5q136 0 233 -85t97 -219q0 -103 -52 -175q-29 -40 -73.5 -67t-90.5 -27q-62 0 -71 63q-46 -59 -115 -59q-64 0 -101.5 47t-37.5 113
q0 87 65.5 162.5t151.5 75.5q32 0 59 -17t39 -45l11 31h72l-74 -240q-9 -29 -9 -44q0 -30 30 -30q23 0 49.5 17.5t42.5 38.5q48 59 48 147q0 117 -78.5 185.5t-197.5 68.5q-133 0 -225 -91q-96 -94 -96 -226q0 -138 94 -225.5t233 -87.5q156 0 262 106zM376 233q74 0 110 99
q20 54 20 94q0 31 -17 50t-48 19q-58 0 -98 -57t-40 -117q0 -37 19 -62.5t54 -25.5z" />
    <glyph glyph-name="A" unicode="A" horiz-adv-x="802" 
d="M485 0v100h79l-42 107h-251l-41 -107h77v-100h-291v114h76l208 486h-79v114h239l250 -600h76v-114h-301zM488 312l-90 245h-1l-91 -245h182z" />
    <glyph glyph-name="B" unicode="B" horiz-adv-x="618" 
d="M31 0v114h77v486h-77v114h317q98 0 148 -37q67 -51 67 -142q0 -50 -24.5 -90.5t-68.5 -61.5q59 -24 91.5 -72t32.5 -112q0 -93 -67 -151q-55 -48 -164 -48h-332zM245 600v-171h69h10.5h11h10.5t11 0.5t9.5 1.5t10.5 2.5t9.5 3.5t10 4.5t9.5 5.5q32 23 32 68q0 47 -37 71
q-22 14 -86 14h-70zM244 317v-198h75q72 0 99 18q40 26 40 78t-39 81q-29 21 -99 21h-76z" />
    <glyph glyph-name="C" unicode="C" horiz-adv-x="715" 
d="M687 489h-130q-29 50 -83.5 79.5t-113.5 29.5q-101 0 -167.5 -67.5t-66.5 -168.5q0 -96 68 -165.5t164 -69.5q62 0 115 28.5t86 79.5h147q-35 -109 -133.5 -179t-213.5 -70q-72 0 -141.5 29.5t-120.5 80.5q-108 110 -108 267q0 151 107 260.5t258 109.5q136 0 221 -88v72
h112v-228z" />
    <glyph glyph-name="D" unicode="D" horiz-adv-x="709" 
d="M31 0v114h78v486h-78v114h339q79 0 138 -21t111 -73q101 -102 101 -265q0 -146 -92 -249q-94 -106 -260 -106h-337zM245 593v-470h107q58 0 99.5 13t74.5 50q58 67 58 169q0 115 -62 181q-34 35 -72.5 46t-95.5 11h-109z" />
    <glyph glyph-name="E" unicode="E" horiz-adv-x="598" 
d="M31 0v114h78v486h-78v114h529v-215h-136v93h-179v-178h208v-106h-208v-189h179v97h136v-216h-529z" />
    <glyph glyph-name="F" unicode="F" horiz-adv-x="598" 
d="M109 114v486h-78v114h533v-215h-136v93h-183v-183h207v-105h-207v-190h78v-114h-292v114h78z" />
    <glyph glyph-name="G" unicode="G" horiz-adv-x="762" 
d="M721 377v-377h-113v110q-40 -60 -106 -92t-142 -32q-154 0 -262.5 109t-108.5 264q0 151 101 258q52 54 123 85t145 31q126 0 225 -85v66h112v-210h-148q-35 46 -81 69q-46 24 -105 24q-99 0 -167 -68.5t-68 -167.5t68 -169t166 -70q72 0 128 37t82 103h-264v115h415z
" />
    <glyph glyph-name="H" unicode="H" horiz-adv-x="750" 
d="M513 428v172h-77v114h290v-114h-77v-486h77v-114h-290v114h77v178h-275v-178h77v-114h-291v114h78v486h-78v114h291v-114h-77v-172h275z" />
    <glyph glyph-name="I" unicode="I" horiz-adv-x="358" 
d="M245 600v-486h77v-114h-291v114h78v486h-78v114h291v-114h-77z" />
    <glyph glyph-name="J" unicode="J" horiz-adv-x="540" 
d="M10 201h142q1 -36 22 -62.5t56 -26.5q44 0 67 39q14 25 14 90v359h-78v114h291v-114h-77v-376q0 -56 -9 -93t-40 -73q-29 -34 -74.5 -53t-92.5 -19q-98 0 -161.5 59.5t-59.5 155.5z" />
    <glyph glyph-name="K" unicode="K" horiz-adv-x="730" 
d="M711 114v-114h-304v114h70l-232 221v-221h77v-114h-291v114h78v486h-78v114h291v-114h-77v-209l221 209h-64v114h294v-114h-61l-254 -234l267 -252h63z" />
    <glyph glyph-name="L" unicode="L" horiz-adv-x="578" 
d="M31 0v114h78v486h-78v114h291v-114h-77v-478h171v94h136v-216h-521z" />
    <glyph glyph-name="M" unicode="M" horiz-adv-x="978" 
d="M873 600v-486h78v-114h-291v114h77v415l-197 -529h-96l-203 529v-415h83v-114h-297v114h78v486h-78v114h268l194 -504l194 504h268v-114h-78z" />
    <glyph glyph-name="N" unicode="N" horiz-adv-x="796" 
d="M700 600v-600h-127l-336 470v-356h78v-114h-291v114h77v486h-77v114h200l340 -478v364h-78v114h291v-114h-77z" />
    <glyph glyph-name="O" unicode="O" horiz-adv-x="727" 
d="M363 -15q-155 0 -264.5 109t-109.5 263q0 157 110 266t267 109q153 0 262.5 -108.5t109.5 -260.5q0 -157 -109.5 -267.5t-265.5 -110.5zM363 121q99 0 167 70.5t68 170.5q0 96 -68.5 165t-164.5 69q-98 0 -167 -68.5t-69 -166.5q0 -100 68 -170t166 -70z" />
    <glyph glyph-name="P" unicode="P" horiz-adv-x="618" 
d="M32 714h284q126 0 190 -47q88 -65 88 -186q0 -101 -69 -168q-65 -66 -182 -66h-98v-133h78v-114h-291v114h77v486h-77v114zM245 370h81q64 0 92 24q39 33 39 87q0 56 -45 87q-30 22 -92 22h-75v-220z" />
    <glyph glyph-name="Q" unicode="Q" horiz-adv-x="856" 
d="M732 162h100v-181l-42 -3q-128 0 -220 72q-98 -64 -209 -64q-157 0 -264.5 110t-107.5 267q0 152 109 261t261 109q156 0 266 -108.5t110 -263.5q0 -137 -85 -233q41 -29 82 -32v66zM129 382l3 -37q58 24 125 24q151 0 288 -149q50 59 50 136q0 100 -68 170.5t-168 70.5
q-101 0 -168 -72q-62 -65 -62 -143zM364 122q56 0 99 27q-106 110 -214 110q-50 0 -90 -22q31 -55 86 -85t119 -30z" />
    <glyph glyph-name="R" unicode="R" horiz-adv-x="658" 
d="M108 114v486h-77v114h319q61 0 104.5 -11t82.5 -44q85 -73 85 -188q0 -81 -49.5 -144.5t-127.5 -70.5l111 -142h81v-114h-167l-226 321v-207h61v-114h-274v114h77zM244 334h74q80 0 119 29q49 38 49 103t-47 101q-14 12 -32.5 17.5t-31 6.5t-37.5 1h-94v-258z" />
    <glyph glyph-name="S" unicode="S" horiz-adv-x="529" 
d="M39 212h124q0 -46 29 -77.5t77 -31.5q45 0 75 26.5t30 71.5q0 20 -8.5 36.5t-18 26t-30 19t-31 13t-34.5 10.5q-33 10 -51 15.5t-43 17.5t-46 28q-78 58 -78 156q0 87 64 146.5t152 59.5q85 0 127 -55v40h104v-192h-122q-1 40 -27 66.5t-66 26.5q-41 0 -69 -24t-28 -65
q0 -25 9 -42.5t31 -29t34 -16t43 -13.5q105 -29 153 -65q71 -57 71 -150q0 -97 -64 -160.5t-162 -63.5q-88 0 -137 61v-47h-108v212z" />
    <glyph glyph-name="T" unicode="T" horiz-adv-x="624" 
d="M380 593v-479h78v-114h-292v114h78v479h-105v-104h-108v225h562v-225h-108v104h-105z" />
    <glyph glyph-name="U" unicode="U" horiz-adv-x="701" 
d="M404 714h278v-114h-77v-354q0 -61 -14 -105t-51 -83q-69 -72 -189 -72q-117 0 -184 66q-41 40 -56 87t-15 111v350h-77v114h278v-114h-65v-336q0 -68 21 -100q33 -50 98 -50q58 0 92 43q26 34 26 107v336h-65v114z" />
    <glyph glyph-name="V" unicode="V" horiz-adv-x="757" 
d="M665 600l-218 -600h-149l-205 600h-77v114h289v-114h-68l141 -412l151 412h-69v114h281v-114h-76z" />
    <glyph glyph-name="W" unicode="W" horiz-adv-x="1044" 
d="M943 600l-159 -600h-129l-132 471l-132 -471h-127l-171 600h-71v114h290v-114h-78l101 -375l129 489h115l137 -485l96 371h-80v114h290v-114h-79z" />
    <glyph glyph-name="X" unicode="X" horiz-adv-x="758" 
d="M730 114v-114h-293v105h70l-128 163l-129 -163h71v-105h-293v114h70l199 248l-188 238h-73v114h294v-105h-66l115 -152l115 152h-66v105h295v-114h-72l-192 -238l198 -248h73z" />
    <glyph glyph-name="Y" unicode="Y" horiz-adv-x="688" 
d="M413 249v-135h78v-114h-291v114h77v135l-189 351h-72v114h276v-114h-66l120 -236l119 236h-68v114h275v-114h-71z" />
    <glyph glyph-name="Z" unicode="Z" horiz-adv-x="583" 
d="M553 217v-217h-519v107l340 488h-202v-98h-121v217h487v-103l-342 -492h232v98h125z" />
    <glyph glyph-name="bracketleft" unicode="[" horiz-adv-x="400" 
d="M349 -14v-115h-298v843h298v-115h-161v-613h161z" />
    <glyph glyph-name="backslash" unicode="\" horiz-adv-x="640" 
d="M423 0l-305 714h101l304 -714h-100z" />
    <glyph glyph-name="bracketright" unicode="]" horiz-adv-x="400" 
d="M51 -14h161v613h-161v115h298v-843h-298v115z" />
    <glyph glyph-name="asciicircum" unicode="^" 
d="M139 174h-91l247 540h88l249 -540h-91l-203 443z" />
    <glyph glyph-name="underscore" unicode="_" horiz-adv-x="520" 
d="M10 -75h500v-50h-500v50z" />
    <glyph glyph-name="grave" unicode="`" horiz-adv-x="480" 
d="M398 689l-41 -89l-276 125l49 108z" />
    <glyph glyph-name="a" unicode="a" horiz-adv-x="670" 
d="M449 0v72q-57 -86 -172 -86q-114 0 -194 82t-80 196q0 117 82 200.5t198 83.5q109 0 166 -90v76h191v-114h-67v-306h67v-114h-191zM288 105q69 0 116 48t47 117q0 66 -47.5 112.5t-113.5 46.5q-68 0 -114.5 -48.5t-46.5 -116.5q0 -65 47 -112t112 -47z" />
    <glyph glyph-name="b" unicode="b" horiz-adv-x="666" 
d="M218 714v-257q58 85 165 85q113 0 194 -81t81 -194q0 -110 -72 -188q-36 -40 -86.5 -63.5t-102.5 -23.5q-117 0 -179 88v-80h-191v114h69v486h-69v114h191zM375 431q-67 0 -114.5 -47t-47.5 -114q0 -70 48 -117.5t117 -47.5q67 0 113 49t46 115q0 67 -47.5 114.5
t-114.5 47.5z" />
    <glyph glyph-name="c" unicode="c" horiz-adv-x="581" 
d="M414 180h136q-25 -84 -100.5 -139t-164.5 -55q-117 0 -199.5 82t-82.5 199q0 113 78.5 198t190.5 85q91 0 153 -67v51h105v-178h-114q-22 32 -57 53q-35 20 -76 20q-68 0 -113 -47t-45 -115t47 -114.5t114 -46.5q40 0 75.5 20t52.5 54z" />
    <glyph glyph-name="d" unicode="d" horiz-adv-x="661" 
d="M450 0v80q-59 -88 -175 -88q-111 0 -191.5 82t-80.5 193q0 113 79.5 194.5t191.5 81.5q51 0 98 -23t78 -64v144h-70v114h192v-600h69v-114h-191zM291 104q68 0 115 48.5t47 116.5q0 66 -47.5 113t-112.5 47q-68 0 -115.5 -48t-47.5 -116q0 -66 47 -113.5t114 -47.5z" />
    <glyph glyph-name="e" unicode="e" horiz-adv-x="564" 
d="M409 157h127q-32 -77 -100.5 -124t-151.5 -47q-117 0 -199 81t-82 198q0 119 80 202t198 83q55 0 108 -23t92 -63q75 -79 75 -200l-4 -43h-432q12 -55 57.5 -91.5t102.5 -36.5q85 0 129 64zM119 315h324q-16 57 -62 91.5t-106 34.5q-54 0 -99.5 -36.5t-56.5 -89.5z" />
    <glyph glyph-name="f" unicode="f" horiz-adv-x="323" 
d="M221 420v-306h70v-114h-261v114h69v306h-69v114h69q-1 99 52 149t155 50v-109q-45 1 -66 -22.5t-19 -67.5h70v-114h-70z" />
    <glyph glyph-name="g" unicode="g" horiz-adv-x="653" 
d="M33 -46h141q15 -32 48.5 -49t71.5 -17q70 0 113 49q24 28 30.5 54.5t6.5 69.5v20q-55 -89 -171 -89q-113 0 -191.5 81.5t-78.5 194.5q0 111 80.5 193t190.5 82q122 0 178 -87v78h181v-114h-69v-349q0 -72 -12.5 -118.5t-54.5 -88.5q-82 -81 -209 -81q-90 0 -162.5 44.5
t-92.5 126.5zM128 269q0 -68 47.5 -116t115.5 -48t115 48.5t47 116.5q0 67 -48 114t-115 47t-114.5 -47.5t-47.5 -114.5z" />
    <glyph glyph-name="h" unicode="h" horiz-adv-x="662" 
d="M221 714v-260q52 92 160 92q94 0 151 -78q27 -37 35.5 -75.5t8.5 -94.5v-184h69v-114h-260v114h69v151v16v17.5t-0.5 15.5t-1.5 17t-3 15t-5.5 16.5t-7.5 14.5q-32 49 -97 49q-58 0 -92 -43q-13 -15 -19 -35t-6.5 -32t-0.5 -40v-162h69v-114h-260v114h69v486h-69v114h191
z" />
    <glyph glyph-name="i" unicode="i" horiz-adv-x="310" 
d="M221 534v-420h69v-114h-261v114h70v306h-69v114h191zM221 714v-129h-122v129h122z" />
    <glyph glyph-name="j" unicode="j" horiz-adv-x="243" 
d="M203 534v-526q0 -104 -51 -153.5t-157 -55.5v113q25 1 42 10.5t25.5 20t13 31.5t5 34t0.5 40v10v362h-69v114h191zM203 714v-129h-122v129h122z" />
    <glyph glyph-name="k" unicode="k" horiz-adv-x="612" 
d="M219 295l137 137h-55v102h263v-114h-65l-147 -142l156 -164h84v-114h-291v114h45l-127 140v-140h48v-114h-240v114h70v486h-70v114h192v-419z" />
    <glyph glyph-name="l" unicode="l" horiz-adv-x="313" 
d="M224 714v-600h69v-114h-265v114h74v486h-69v114h191z" />
    <glyph glyph-name="m" unicode="m" horiz-adv-x="990" 
d="M99 114v306h-69v114h180v-80q56 93 154 93q55 0 99 -30.5t67 -81.5q22 50 70.5 81t104.5 31q94 0 154 -68q20 -23 29.5 -52.5t11 -50t1.5 -60.5v-202h69v-114h-260v114h69v172q0 66 -16 97q-30 44 -87 44q-58 0 -90 -40q-17 -22 -21 -43t-4 -58v-172h69v-114h-260v114h69
v164q0 72 -16 100q-26 49 -88 49q-53 0 -85 -39q-29 -35 -29 -109v-165h69v-114h-260v114h69z" />
    <glyph glyph-name="n" unicode="n" horiz-adv-x="664" 
d="M99 114v306h-69v114h191v-76q48 88 158 88q93 0 154 -66q21 -23 31 -50.5t12 -48t2 -58.5v-209h69v-114h-260v114h69v173q0 67 -21 96q-33 43 -94 43q-64 0 -97 -45q-23 -30 -23 -112v-155h69v-114h-260v114h69z" />
    <glyph glyph-name="o" unicode="o" horiz-adv-x="571" 
d="M282 -14q-116 0 -197.5 83.5t-81.5 199.5q0 117 82.5 199t199.5 82q115 0 196.5 -82.5t81.5 -197.5q0 -117 -82 -200.5t-199 -83.5zM282 106q67 0 114 47t47 114q0 66 -46 114.5t-112 48.5t-114 -47t-48 -113q0 -67 46 -115.5t113 -48.5z" />
    <glyph glyph-name="p" unicode="p" horiz-adv-x="673" 
d="M95 -81v501h-68v114h191v-84q58 90 175 90q113 0 192.5 -80.5t79.5 -194.5q0 -111 -78 -192t-188 -81q-117 0 -181 83v-156h69v-114h-260v114h68zM378 105q66 0 113.5 47t47.5 113t-46 114.5t-112 48.5q-68 0 -116 -47t-48 -115q0 -67 47 -114t114 -47z" />
    <glyph glyph-name="q" unicode="q" horiz-adv-x="661" 
d="M450 -81v156q-64 -83 -181 -83q-110 0 -188 81t-78 192q0 113 80 194t193 81q116 0 174 -90v84h191v-114h-68v-501h68v-114h-260v114h69zM290 105q67 0 114 47t47 114q0 69 -47.5 115.5t-116.5 46.5q-66 0 -111.5 -48.5t-45.5 -114.5t47.5 -113t112.5 -47z" />
    <glyph glyph-name="r" unicode="r" horiz-adv-x="359" 
d="M209 534v-91q45 92 160 97v-125q-65 -3 -105 -39q-46 -39 -46 -127v-135h69v-114h-260v114h69v306h-69v114h182z" />
    <glyph glyph-name="s" unicode="s" horiz-adv-x="478" 
d="M39 155h125q3 -36 26 -58t60 -22q29 0 51 18.5t22 47.5q0 8 -1.5 15t-3.5 12t-7 10t-8 8.5t-10.5 7t-10.5 5t-12.5 5t-12 4t-13.5 3.5t-12 3q-36 9 -57 15.5t-51 20.5t-46 30.5t-28.5 43t-12.5 60.5q0 74 53 117.5t128 43.5q83 0 121 -48v37h90v-145h-118
q-1 28 -20.5 45.5t-48.5 17.5q-27 0 -47.5 -15t-20.5 -41q0 -18 7.5 -30.5t23 -20.5t26.5 -11t31 -8q35 -8 58 -15t52.5 -20.5t47 -30.5t29.5 -44t12 -62q0 -78 -56 -123t-135 -45q-88 0 -138 58v-44h-93v155z" />
    <glyph glyph-name="t" unicode="t" horiz-adv-x="333" 
d="M206 420v-306h97v-114h-219v420h-84v114h84v180h122v-180h91v-114h-91z" />
    <glyph glyph-name="u" unicode="u" horiz-adv-x="643" 
d="M554 534v-420h69v-114h-181v66q-26 -38 -69.5 -59t-91.5 -21q-91 0 -148 68q-47 55 -47 155v211h-69v114h191v-289q0 -70 21 -100q30 -46 90 -46q56 0 90 44q23 32 23 105v172h-69v114h191z" />
    <glyph glyph-name="v" unicode="v" horiz-adv-x="618" 
d="M540 420l-168 -420h-128l-164 420h-65v114h249v-114h-54l98 -270h1l105 270h-57v114h246v-114h-63z" />
    <glyph glyph-name="w" unicode="w" horiz-adv-x="886" 
d="M800 420l-146 -420h-118l-97 314l-115 -314h-114l-128 420h-67v114h247v-114h-59l77 -251h1l112 345h100l104 -345h1l82 251h-61v114h252v-114h-71z" />
    <glyph glyph-name="x" unicode="x" horiz-adv-x="643" 
d="M541 420l-136 -150l143 -156h62v-114h-252v100h42l-78 95l-79 -95h42v-100h-252v114h63l141 156l-138 150h-60v114h246v-94h-45l82 -93l81 93h-45v94h243v-114h-60z" />
    <glyph glyph-name="y" unicode="y" horiz-adv-x="623" 
d="M541 420l-207 -501h70v-114h-260v114h67l36 88l-162 413h-70v114h252v-114h-52l95 -261l101 261h-52v114h249v-114h-67z" />
    <glyph glyph-name="z" unicode="z" horiz-adv-x="496" 
d="M42 534h410v-110l-257 -310h164v59h107v-173h-436v98l271 322h-152v-63h-107v177z" />
    <glyph glyph-name="braceleft" unicode="{" horiz-adv-x="340" 
d="M225 169v-185q0 -48 16.5 -73.5t61.5 -39.5h-20.5h-21.5t-18.5 0.5t-20.5 2.5t-18 4.5t-20 7t-18 10.5q-26 17 -33.5 42.5t-7.5 63.5v185q0 19 -0.5 28t-5.5 21.5t-15 24.5q-22 25 -58 34q27 5 51 22q14 11 20.5 26.5t7 25.5t0.5 33v164q0 84 30 114q18 17 48 25t45 8.5
t55 0.5q-43 -13 -60.5 -39.5t-17.5 -73.5v-173q0 -59 -17 -90.5t-70 -42.5q51 -12 69 -41.5t18 -84.5z" />
    <glyph glyph-name="bar" unicode="|" 
d="M294 750h92v-1000h-92v1000z" />
    <glyph glyph-name="braceright" unicode="}" horiz-adv-x="340" 
d="M124 428v173q0 47 -17 73.5t-60 38.5h51t51.5 -8t44.5 -25q30 -30 30 -114v-164q0 -23 0.5 -33t7 -25.5t20.5 -26.5q24 -17 51 -22q-36 -9 -58 -34q-10 -12 -15 -24.5t-5.5 -21.5t-0.5 -28v-185q0 -38 -7.5 -63.5t-33.5 -42.5q-9 -6 -18 -10.5t-20 -7t-17.5 -4.5
t-20 -2.5t-18.5 -0.5h-21.5h-20.5q44 14 60.5 39.5t16.5 73.5v185q0 55 18 84.5t69 41.5q-52 11 -69.5 43t-17.5 90z" />
    <glyph glyph-name="asciitilde" unicode="~" 
d="M549 448l72 -46q-19 -26 -26 -36t-25.5 -30.5t-32 -29t-35 -16t-44.5 -7.5q-37 0 -104 25l-48 19q-6 2 -20 7.5t-22.5 8.5t-21 5.5t-21.5 2.5q-11 0 -20 -2t-17.5 -8t-14.5 -10.5t-14 -15t-11 -15t-11.5 -17.5t-10.5 -16l-72 47q37 58 75.5 91.5t93.5 33.5
q46 0 129.5 -33.5t109.5 -33.5q11 0 21 4t16.5 8t16.5 15t13 15t13 18.5t11 15.5z" />
    <glyph glyph-name="uni00A0" unicode="&#xa0;" horiz-adv-x="300" 
 />
    <glyph glyph-name="exclamdown" unicode="&#xa1;" horiz-adv-x="346" 
d="M110 393v141h126v-141h-126zM110 -181v500h126v-500h-126z" />
    <glyph glyph-name="cent" unicode="&#xa2;" horiz-adv-x="600" 
d="M356 687v-97q51 -13 84 -49v39h77v-162h-116q-12 25 -38 38.5t-55 13.5q-47 0 -80 -32.5t-33 -80.5t33.5 -80t82.5 -32q50 0 86 44h134q-18 -63 -64 -104t-111 -59v-97h-100v101q-80 14 -133.5 79t-53.5 146q0 82 53.5 149.5t133.5 83.5v99h100z" />
    <glyph glyph-name="sterling" unicode="&#xa3;" horiz-adv-x="600" 
d="M224 400h183v-100h-123q46 -58 46 -103q0 -59 -45 -92h62q62 0 87 21q35 27 35 81q0 17 -6 37h105q10 -26 10 -53q0 -90 -68 -145q-54 -46 -156 -46h-288v105h74q29 5 46.5 26t17.5 53q0 23 -10 46t-18 34t-29 36h-124v100h67q-30 47 -30 105q0 94 68 159t156 65
q67 0 118 -56v41h112v-198h-112q-2 45 -32 72t-72 27q-47 0 -79 -34t-32 -85q0 -53 37 -96z" />
    <glyph glyph-name="currency" unicode="&#xa4;" horiz-adv-x="600" 
d="M47 156l55 54q-41 55 -41 133t41 133l-54 53l69 69l52 -53q59 41 135 41q70 0 135 -40l52 52l69 -69l-53 -52q40 -57 40 -135q0 -66 -40 -133l53 -53l-69 -67l-52 52q-65 -42 -133 -42q-74 0 -136 42l-53 -52zM304 476q-55 0 -94 -39t-39 -94t38.5 -94.5t93.5 -39.5
t94.5 38.5t39.5 93.5q0 56 -39 95.5t-94 39.5z" />
    <glyph glyph-name="yen" unicode="&#xa5;" horiz-adv-x="600" 
d="M430 0h-256v114h68v134l-8 15h-195v57h167l-19 43h-148v57h120l-85 181h-64v113h243v-113h-57l106 -238l105 238h-57v113h240v-113h-63l-83 -181h116v-57h-144l-21 -43h165v-57h-193l-6 -15v-134h69v-114z" />
    <glyph glyph-name="brokenbar" unicode="&#xa6;" 
d="M294 675h92v-350h-92v350zM294 175h92v-350h-92v350z" />
    <glyph glyph-name="section" unicode="&#xa7;" horiz-adv-x="480" 
d="M47 56h107q-4 -41 20.5 -64t66.5 -23q37 0 63 20t26 56q0 17 -7 30.5t-15 21.5t-24.5 14.5t-26 9t-29.5 7.5q-170 39 -170 173q0 49 28 87t75 54q-98 37 -98 120q0 67 51.5 109.5t120.5 42.5q74 0 128 -42t53 -115h-102q4 28 -18.5 45.5t-51.5 17.5q-31 0 -53 -18.5
t-22 -49.5q0 -9 2 -17t7 -15t9 -12t12.5 -10t13.5 -8t16 -6.5t15 -5t16 -5t15 -4.5q66 -18 96 -46q54 -46 54 -120q0 -92 -89 -139q97 -34 97 -130q0 -73 -56.5 -119t-130.5 -46q-83 0 -138 46q-61 51 -61 126v15zM241 225q31 0 55 21.5t24 52.5q0 32 -24 53.5t-56 21.5
q-33 0 -57 -21.5t-24 -53.5q0 -33 24.5 -53.5t57.5 -20.5z" />
    <glyph glyph-name="dieresis" unicode="&#xa8;" horiz-adv-x="480" 
d="M394 714v-129h-122v129h122zM208 714v-129h-122v129h122z" />
    <glyph glyph-name="copyright" unicode="&#xa9;" horiz-adv-x="840" 
d="M793 363q0 -158 -109 -267.5t-267 -109.5q-153 0 -261 110.5t-108 263.5q0 155 109 264t264 109q153 0 262.5 -108.5t109.5 -261.5zM421 38q132 0 226.5 93.5t94.5 225.5q0 136 -94 230t-229 94q-132 0 -226.5 -94t-94.5 -226q0 -134 94.5 -228.5t228.5 -94.5zM563 284
l60 -19q-20 -61 -77 -93.5t-125 -32.5q-96 0 -154 60.5t-58 156.5q0 100 63 164.5t162 64.5q65 0 120.5 -32t68.5 -90l-68 -16q-8 46 -41 71t-83 25q-73 0 -114 -53.5t-41 -129.5t39.5 -126.5t113.5 -50.5q100 0 134 101z" />
    <glyph glyph-name="ordfeminine" unicode="&#xaa;" horiz-adv-x="440" 
d="M286 403v35q-35 -44 -98 -44q-69 0 -117 49.5t-48 118.5t48 120t116 51q64 0 99 -45v36h120v-74h-41v-173h41v-74h-120zM194 472q39 0 65.5 27t26.5 66q0 37 -26.5 63.5t-63.5 26.5q-39 0 -65.5 -27t-26.5 -66q0 -37 26.5 -63.5t63.5 -26.5z" />
    <glyph glyph-name="guillemotleft" unicode="&#xab;" horiz-adv-x="380" 
d="M169 77l-123 143v95l123 142l6 -115l-64 -79l64 -78zM329 82l-122 138v91l122 144l6 -119l-62 -74l62 -74z" />
    <glyph glyph-name="logicalnot" unicode="&#xac;" 
d="M538 174v215h-489v93h582v-308h-93z" />
    <glyph glyph-name="uni00AD" unicode="&#xad;" horiz-adv-x="340" 
d="M298 202h-256v121h256v-121z" />
    <glyph glyph-name="registered" unicode="&#xae;" horiz-adv-x="840" 
d="M793 359q0 -155 -110 -264t-265 -109q-154 0 -262.5 110.5t-108.5 264.5q0 155 110 263.5t264 108.5t263 -109.5t109 -264.5zM423 38q132 0 225.5 95.5t93.5 227.5q0 134 -95 227.5t-229 93.5q-132 0 -225.5 -94.5t-93.5 -226.5q0 -136 94 -229.5t230 -93.5zM493 343
l127 -201h-73l-120 201h-97v-201h-63v444h203q71 0 106 -20q52 -30 52 -101q0 -60 -36.5 -90t-98.5 -32zM330 391h116q34 0 57 4t42.5 22.5t19.5 51.5q0 23 -9.5 38.5t-27.5 22t-35 9t-39 2.5h-124v-150z" />
    <glyph glyph-name="macron" unicode="&#xaf;" horiz-adv-x="540" 
d="M465 735v-98h-384v98h384z" />
    <glyph glyph-name="degree" unicode="&#xb0;" horiz-adv-x="420" 
d="M360 583q0 -62 -44 -106t-106 -44t-106 44t-44 106t44 106t106 44t106 -44.5t44 -105.5zM290 583q0 34 -23 57t-57 23t-57 -23t-23 -57q0 -33 23 -55.5t57 -24.5q34 0 57 23t23 57z" />
    <glyph glyph-name="plusminus" unicode="&#xb1;" 
d="M86 496h208v116h92v-116h208v-92h-208v-118h-92v118h-208v92zM86 102v92h508v-92h-508z" />
    <glyph glyph-name="twosuperior" unicode="&#xb2;" horiz-adv-x="368" 
d="M336 293h-305v69l167 149q1 1 10.5 9.5t11.5 10.5t9.5 10t10 12t7 11.5t6 14t1.5 13.5q0 27 -21 44.5t-50 17.5q-32 0 -52 -21t-18 -51h-84q-1 65 44.5 108t114.5 43q63 0 107 -41t44 -99q0 -42 -22 -71.5t-67 -66.5l-109 -93h119v45h76v-114z" />
    <glyph glyph-name="threesuperior" unicode="&#xb3;" horiz-adv-x="368" 
d="M150 496v62h18q73 0 73 55q0 24 -16.5 38.5t-42.5 14.5q-23 0 -39 -13.5t-17 -35.5h-80q0 51 41.5 83.5t96.5 32.5t95 -31t40 -81q0 -27 -14.5 -51.5t-39.5 -36.5q36 -13 58 -43.5t22 -67.5q0 -58 -49 -97.5t-112 -39.5q-66 0 -114.5 35.5t-51.5 96.5h87q5 -26 25 -43.5
t49 -17.5q31 0 53 20.5t22 48.5q0 32 -23.5 51.5t-58.5 19.5h-22z" />
    <glyph glyph-name="acute" unicode="&#xb4;" horiz-adv-x="480" 
d="M123 600l-42 87l265 150l53 -107z" />
    <glyph glyph-name="mu" unicode="&#xb5;" horiz-adv-x="660" 
d="M564 534v-420h69v-114h-181v66q-26 -38 -69.5 -59t-91.5 -21q-41 0 -73 14v-195h-122v615h-69v114h191v-289q0 -146 111 -146q7 0 17 1.5t28 9.5t32 21.5t25 41.5t11 65v182h-69v114h191z" />
    <glyph glyph-name="paragraph" unicode="&#xb6;" horiz-adv-x="560" 
d="M231 714h320v-114h-69v-729h-90v729h-98v-729h-90v486q-75 2 -126.5 52.5t-51.5 125.5q0 82 61 135q30 26 63 35t81 9z" />
    <glyph glyph-name="periodcentered" unicode="&#xb7;" horiz-adv-x="320" 
d="M223 429v-141h-126v141h126z" />
    <glyph glyph-name="cedilla" unicode="&#xb8;" horiz-adv-x="380" 
d="M221 0l-28 -69l13 1q40 0 67.5 -29.5t27.5 -70.5q0 -49 -32 -80.5t-81 -31.5q-45 0 -75.5 29.5t-33.5 73.5h74q9 -30 36 -30q17 0 27 10.5t10 26.5t-10.5 27.5t-26.5 11.5q-20 0 -34 -16l-60 25l48 122h78z" />
    <glyph glyph-name="onesuperior" unicode="&#xb9;" horiz-adv-x="368" 
d="M231 714v-360h55v-68h-195v68h54v292h-68v68h154z" />
    <glyph glyph-name="ordmasculine" unicode="&#xba;" horiz-adv-x="380" 
d="M192 399q-69 0 -117.5 49.5t-48.5 118.5q0 70 49 118t119 48q68 0 117 -48.5t49 -115.5q0 -70 -49 -120t-119 -50zM105 567q0 -37 25.5 -63.5t61.5 -26.5q37 0 63 26t26 63q0 36 -25.5 62.5t-61.5 26.5q-37 0 -63 -26t-26 -62z" />
    <glyph glyph-name="guillemotright" unicode="&#xbb;" horiz-adv-x="380" 
d="M211 77l-5 108l63 78l-63 79l5 115l124 -142v-95zM52 82l-6 106l61 74l-61 74l6 119l121 -144v-91z" />
    <glyph glyph-name="onequarter" unicode="&#xbc;" horiz-adv-x="890" 
d="M840 176v-62h-70v-46h54v-68h-193v68h54v46h-214v62l200 252h99v-252h70zM301 0h-100l322 714h98zM685 176v155l-120 -155h120zM220 714v-360h55v-68h-195v68h54v292h-68v68h154z" />
    <glyph glyph-name="onehalf" unicode="&#xbd;" horiz-adv-x="890" 
d="M311 0h-100l322 714h98zM231 714v-360h55v-68h-195v68h54v292h-68v68h154zM838 0h-305v69l167 149q1 1 10.5 9.5t11.5 10.5t9.5 10t10 12t7 11.5t6 14t1.5 13.5q0 27 -21 44.5t-50 17.5q-32 0 -52 -21t-18 -51h-84q-1 65 44.5 108t114.5 43q63 0 107 -41t44 -99
q0 -42 -22 -71.5t-67 -66.5l-109 -93h119v45h76v-114z" />
    <glyph glyph-name="threequarters" unicode="&#xbe;" horiz-adv-x="890" 
d="M860 176v-62h-70v-46h54v-68h-193v68h54v46h-214v62l200 252h99v-252h70zM336 0h-100l322 714h98zM705 176v155l-120 -155h120zM152 496v62h18q73 0 73 55q0 24 -16.5 38.5t-42.5 14.5q-23 0 -39 -13.5t-17 -35.5h-80q0 51 41.5 83.5t96.5 32.5t95 -31t40 -81
q0 -27 -14.5 -51.5t-39.5 -36.5q36 -13 58 -43.5t22 -67.5q0 -58 -49 -97.5t-112 -39.5q-66 0 -114.5 35.5t-51.5 96.5h87q5 -26 25 -43.5t49 -17.5q31 0 53 20.5t22 48.5q0 32 -23.5 51.5t-58.5 19.5h-22z" />
    <glyph glyph-name="questiondown" unicode="&#xbf;" horiz-adv-x="560" 
d="M219 393v141h126v-141h-126zM219 333h126q0 -58 -24.5 -99t-75.5 -88q-20 -18 -26 -24t-19 -21.5t-17.5 -30.5t-4.5 -33q0 -42 30.5 -73.5t73.5 -31.5q49 0 79 32.5t31 81.5h128q2 -102 -67.5 -173t-171.5 -71q-95 0 -165 69t-70 164q0 46 15.5 80.5t39 57t48 43t44.5 50
t26 67.5z" />
    <glyph glyph-name="Agrave" unicode="&#xc0;" horiz-adv-x="802" 
d="M485 0v100h79l-42 107h-251l-41 -107h77v-100h-291v114h76l208 486h-79v114h239l250 -600h76v-114h-301zM488 312l-90 245h-1l-91 -245h182zM537 869l-41 -89l-276 125l49 108z" />
    <glyph glyph-name="Aacute" unicode="&#xc1;" horiz-adv-x="802" 
d="M485 0v100h79l-42 107h-251l-41 -107h77v-100h-291v114h76l208 486h-79v114h239l250 -600h76v-114h-301zM488 312l-90 245h-1l-91 -245h182zM262 780l-42 87l265 150l53 -107z" />
    <glyph glyph-name="Acircumflex" unicode="&#xc2;" horiz-adv-x="802" 
d="M485 0v100h79l-42 107h-251l-41 -107h77v-100h-291v114h76l208 486h-79v114h239l250 -600h76v-114h-301zM488 312l-90 245h-1l-91 -245h182zM600 811h-138l-77 75l-77 -75h-138l173 168h84z" />
    <glyph glyph-name="Atilde" unicode="&#xc3;" horiz-adv-x="802" 
d="M485 0v100h79l-42 107h-251l-41 -107h77v-100h-291v114h76l208 486h-79v114h239l250 -600h76v-114h-301zM488 312l-90 245h-1l-91 -245h182zM515 939l59 -81q-51 -45 -112 -45q-29 0 -75 15t-65 15q-35 0 -67 -29l-64 90q46 37 101 37q28 0 74 -14q43 -15 72 -15
q47 0 77 27z" />
    <glyph glyph-name="Adieresis" unicode="&#xc4;" horiz-adv-x="802" 
d="M485 0v100h79l-42 107h-251l-41 -107h77v-100h-291v114h76l208 486h-79v114h239l250 -600h76v-114h-301zM488 312l-90 245h-1l-91 -245h182zM347 894v-129h-122v129h122zM533 894v-129h-122v129h122z" />
    <glyph glyph-name="Aring" unicode="&#xc5;" horiz-adv-x="802" 
d="M485 0v100h79l-42 107h-251l-41 -107h77v-100h-291v114h76l208 486h-79v114h239l250 -600h76v-114h-301zM488 312l-90 245h-1l-91 -245h182zM389 778q-49 0 -83.5 34.5t-34.5 84.5q0 48 35 82t83 34t82 -35t34 -83t-34 -82.5t-82 -34.5zM388 848q20 0 33.5 14.5
t13.5 34.5q0 19 -14 32.5t-33 13.5q-20 0 -33.5 -14.5t-13.5 -34.5q0 -19 14 -32.5t33 -13.5z" />
    <glyph glyph-name="AE" unicode="&#xc6;" horiz-adv-x="1004" 
d="M436 0v96h77v114h-211l-75 -114h78v-96h-289v114h79l332 486h-75v114h614v-215h-136v94h-181v-180h209v-103h-209v-190h181v96h136v-216h-530zM513 310v232h-1l-149 -232h150z" />
    <glyph glyph-name="Ccedilla" unicode="&#xc7;" horiz-adv-x="735" 
d="M687 489h-130q-29 50 -83.5 79.5t-113.5 29.5q-101 0 -167.5 -67.5t-66.5 -168.5q0 -96 68 -165.5t164 -69.5q62 0 115 28.5t86 79.5h147q-33 -103 -122.5 -171t-198.5 -76l-23 -57l13 1q40 0 67.5 -29.5t27.5 -70.5q0 -49 -32 -80.5t-81 -31.5q-45 0 -75.5 29.5
t-33.5 73.5h74q9 -30 36 -30q16 0 26.5 10.5t10.5 26.5t-10.5 27.5t-26.5 11.5q-20 0 -34 -16l-60 25l44 112q-124 19 -211 106q-108 110 -108 267q0 151 107 260.5t258 109.5q136 0 221 -88v72h112v-228z" />
    <glyph glyph-name="Egrave" unicode="&#xc8;" horiz-adv-x="598" 
d="M31 0v114h78v486h-78v114h529v-215h-136v93h-179v-178h208v-106h-208v-189h179v97h136v-216h-529zM457 869l-41 -89l-276 125l49 108z" />
    <glyph glyph-name="Eacute" unicode="&#xc9;" horiz-adv-x="598" 
d="M31 0v114h78v486h-78v114h529v-215h-136v93h-179v-178h208v-106h-208v-189h179v97h136v-216h-529zM182 780l-42 87l265 150l53 -107z" />
    <glyph glyph-name="Ecircumflex" unicode="&#xca;" horiz-adv-x="598" 
d="M31 0v114h78v486h-78v114h529v-215h-136v93h-179v-178h208v-106h-208v-189h179v97h136v-216h-529zM510 811h-138l-77 75l-77 -75h-138l173 168h84z" />
    <glyph glyph-name="Edieresis" unicode="&#xcb;" horiz-adv-x="598" 
d="M31 0v114h78v486h-78v114h529v-215h-136v93h-179v-178h208v-106h-208v-189h179v97h136v-216h-529zM453 894v-129h-122v129h122zM267 894v-129h-122v129h122z" />
    <glyph glyph-name="Igrave" unicode="&#xcc;" horiz-adv-x="358" 
d="M245 600v-486h77v-114h-291v114h78v486h-78v114h291v-114h-77zM337 869l-41 -89l-276 125l49 108z" />
    <glyph glyph-name="Iacute" unicode="&#xcd;" horiz-adv-x="358" 
d="M245 600v-486h77v-114h-291v114h78v486h-78v114h291v-114h-77zM62 780l-42 87l265 150l53 -107z" />
    <glyph glyph-name="Icircumflex" unicode="&#xce;" horiz-adv-x="358" 
d="M245 600v-486h77v-114h-291v114h78v486h-78v114h291v-114h-77zM400 811h-138l-77 75l-77 -75h-138l173 168h84z" />
    <glyph glyph-name="Idieresis" unicode="&#xcf;" horiz-adv-x="358" 
d="M245 600v-486h77v-114h-291v114h78v486h-78v114h291v-114h-77zM333 894v-129h-122v129h122zM147 894v-129h-122v129h122z" />
    <glyph glyph-name="Eth" unicode="&#xd0;" horiz-adv-x="709" 
d="M381 414v-106h-136v-185h107q58 0 99.5 13t74.5 50q58 67 58 169q0 115 -62 181q-34 35 -72.5 46t-95.5 11h-109v-179h136zM31 0v114h78v194h-78v106h78v186h-78v114h339q79 0 138 -21t111 -73q101 -102 101 -265q0 -146 -92 -249q-94 -106 -260 -106h-337z" />
    <glyph glyph-name="Ntilde" unicode="&#xd1;" horiz-adv-x="796" 
d="M700 600v-600h-127l-336 470v-356h78v-114h-291v114h77v486h-77v114h200l340 -478v364h-78v114h291v-114h-77zM538 939l59 -81q-51 -45 -112 -45q-29 0 -75 15t-65 15q-35 0 -67 -29l-64 90q46 37 101 37q28 0 74 -14q43 -15 72 -15q47 0 77 27z" />
    <glyph glyph-name="Ograve" unicode="&#xd2;" horiz-adv-x="727" 
d="M363 -15q-155 0 -264.5 109t-109.5 263q0 157 110 266t267 109q153 0 262.5 -108.5t109.5 -260.5q0 -157 -109.5 -267.5t-265.5 -110.5zM363 121q99 0 167 70.5t68 170.5q0 96 -68.5 165t-164.5 69q-98 0 -167 -68.5t-69 -166.5q0 -100 68 -170t166 -70zM517 869l-41 -89
l-276 125l49 108z" />
    <glyph glyph-name="Oacute" unicode="&#xd3;" horiz-adv-x="727" 
d="M363 -15q-155 0 -264.5 109t-109.5 263q0 157 110 266t267 109q153 0 262.5 -108.5t109.5 -260.5q0 -157 -109.5 -267.5t-265.5 -110.5zM363 121q99 0 167 70.5t68 170.5q0 96 -68.5 165t-164.5 69q-98 0 -167 -68.5t-69 -166.5q0 -100 68 -170t166 -70zM242 780l-42 87
l265 150l53 -107z" />
    <glyph glyph-name="Ocircumflex" unicode="&#xd4;" horiz-adv-x="727" 
d="M363 -15q-155 0 -264.5 109t-109.5 263q0 157 110 266t267 109q153 0 262.5 -108.5t109.5 -260.5q0 -157 -109.5 -267.5t-265.5 -110.5zM363 121q99 0 167 70.5t68 170.5q0 96 -68.5 165t-164.5 69q-98 0 -167 -68.5t-69 -166.5q0 -100 68 -170t166 -70zM570 811h-138
l-77 75l-77 -75h-138l173 168h84z" />
    <glyph glyph-name="Otilde" unicode="&#xd5;" horiz-adv-x="727" 
d="M363 -15q-155 0 -264.5 109t-109.5 263q0 157 110 266t267 109q153 0 262.5 -108.5t109.5 -260.5q0 -157 -109.5 -267.5t-265.5 -110.5zM363 121q99 0 167 70.5t68 170.5q0 96 -68.5 165t-164.5 69q-98 0 -167 -68.5t-69 -166.5q0 -100 68 -170t166 -70zM495 939l59 -81
q-51 -45 -112 -45q-29 0 -75 15t-65 15q-35 0 -67 -29l-64 90q46 37 101 37q28 0 74 -14q43 -15 72 -15q47 0 77 27z" />
    <glyph glyph-name="Odieresis" unicode="&#xd6;" horiz-adv-x="727" 
d="M363 -15q-155 0 -264.5 109t-109.5 263q0 157 110 266t267 109q153 0 262.5 -108.5t109.5 -260.5q0 -157 -109.5 -267.5t-265.5 -110.5zM363 121q99 0 167 70.5t68 170.5q0 96 -68.5 165t-164.5 69q-98 0 -167 -68.5t-69 -166.5q0 -100 68 -170t166 -70zM513 894v-129
h-122v129h122zM327 894v-129h-122v129h122z" />
    <glyph glyph-name="multiply" unicode="&#xd7;" 
d="M101 184l174 174l-174 174l65 65l174 -174l174 174l65 -65l-174 -174l174 -174l-65 -65l-174 174l-174 -174z" />
    <glyph glyph-name="Oslash" unicode="&#xd8;" horiz-adv-x="742" 
d="M173 39l-72 -90l-75 60l74 91q-101 108 -101 258q0 157 109.5 266t265.5 109q88 0 178 -48l14 -8l71 87l76 -60l-71 -87q101 -110 101 -262q0 -155 -111 -262t-267 -107q-88 0 -157 35zM553 506l-290 -356q65 -29 108 -29q99 0 166.5 69t67.5 168q0 45 -12 77t-40 71z
M191 213l288 354q-65 31 -112 31q-96 0 -163 -72t-67 -169q0 -71 54 -144z" />
    <glyph glyph-name="Ugrave" unicode="&#xd9;" horiz-adv-x="701" 
d="M404 714h278v-114h-77v-354q0 -61 -14 -105t-51 -83q-69 -72 -189 -72q-117 0 -184 66q-41 40 -56 87t-15 111v350h-77v114h278v-114h-65v-336q0 -68 21 -100q33 -50 98 -50q58 0 92 43q26 34 26 107v336h-65v114zM504 869l-41 -89l-276 125l49 108z" />
    <glyph glyph-name="Uacute" unicode="&#xda;" horiz-adv-x="701" 
d="M404 714h278v-114h-77v-354q0 -61 -14 -105t-51 -83q-69 -72 -189 -72q-117 0 -184 66q-41 40 -56 87t-15 111v350h-77v114h278v-114h-65v-336q0 -68 21 -100q33 -50 98 -50q58 0 92 43q26 34 26 107v336h-65v114zM229 780l-42 87l265 150l53 -107z" />
    <glyph glyph-name="Ucircumflex" unicode="&#xdb;" horiz-adv-x="701" 
d="M404 714h278v-114h-77v-354q0 -61 -14 -105t-51 -83q-69 -72 -189 -72q-117 0 -184 66q-41 40 -56 87t-15 111v350h-77v114h278v-114h-65v-336q0 -68 21 -100q33 -50 98 -50q58 0 92 43q26 34 26 107v336h-65v114zM567 811h-138l-77 75l-77 -75h-138l173 168h84z" />
    <glyph glyph-name="Udieresis" unicode="&#xdc;" horiz-adv-x="701" 
d="M404 714h278v-114h-77v-354q0 -61 -14 -105t-51 -83q-69 -72 -189 -72q-117 0 -184 66q-41 40 -56 87t-15 111v350h-77v114h278v-114h-65v-336q0 -68 21 -100q33 -50 98 -50q58 0 92 43q26 34 26 107v336h-65v114zM510 894v-129h-122v129h122zM324 894v-129h-122v129h122
z" />
    <glyph glyph-name="Yacute" unicode="&#xdd;" horiz-adv-x="688" 
d="M413 249v-135h78v-114h-291v114h77v135l-189 351h-72v114h276v-114h-66l120 -236l119 236h-68v114h275v-114h-71zM232 780l-42 87l265 150l53 -107z" />
    <glyph glyph-name="Thorn" unicode="&#xde;" horiz-adv-x="578" 
d="M32 600v114h291v-114h-78v-39h71q64 0 110.5 -8t86.5 -29t60.5 -62.5t20.5 -103.5q0 -104 -68 -152t-183 -48h-98v-44h78v-114h-291v114h77v486h-77zM245 267h81q66 0 98.5 18.5t32.5 72.5q0 55 -36 74.5t-101 19.5h-75v-185z" />
    <glyph glyph-name="germandbls" unicode="&#xdf;" horiz-adv-x="599" 
d="M92 114v357q0 57 11.5 98.5t43.5 79.5q33 39 79 61.5t86 22.5q89 0 151 -58.5t62 -147.5q0 -46 -22 -84t-63 -55q71 -11 111 -64t40 -127q0 -94 -59.5 -153.5t-147.5 -59.5q-51 0 -102 19v114q37 -21 78 -21q45 0 77 30.5t32 75.5q0 59 -45.5 87t-107.5 28h-27v108h16
q42 0 69 26t27 68q0 40 -25 66t-62 26q-47 0 -79 -45q-10 -14 -15 -33t-5.5 -30t-0.5 -37v-466h-192v114h70z" />
    <glyph glyph-name="agrave" unicode="&#xe0;" horiz-adv-x="670" 
d="M449 0v72q-57 -86 -172 -86q-114 0 -194 82t-80 196q0 117 82 200.5t198 83.5q109 0 166 -90v76h191v-114h-67v-306h67v-114h-191zM288 105q69 0 116 48t47 117q0 66 -47.5 112.5t-113.5 46.5q-68 0 -114.5 -48.5t-46.5 -116.5q0 -65 47 -112t112 -47zM479 689l-41 -89
l-276 125l49 108z" />
    <glyph glyph-name="aacute" unicode="&#xe1;" horiz-adv-x="670" 
d="M449 0v72q-57 -86 -172 -86q-114 0 -194 82t-80 196q0 117 82 200.5t198 83.5q109 0 166 -90v76h191v-114h-67v-306h67v-114h-191zM288 105q69 0 116 48t47 117q0 66 -47.5 112.5t-113.5 46.5q-68 0 -114.5 -48.5t-46.5 -116.5q0 -65 47 -112t112 -47zM204 600l-42 87
l265 150l53 -107z" />
    <glyph glyph-name="acircumflex" unicode="&#xe2;" horiz-adv-x="670" 
d="M449 0v72q-57 -86 -172 -86q-114 0 -194 82t-80 196q0 117 82 200.5t198 83.5q109 0 166 -90v76h191v-114h-67v-306h67v-114h-191zM288 105q69 0 116 48t47 117q0 66 -47.5 112.5t-113.5 46.5q-68 0 -114.5 -48.5t-46.5 -116.5q0 -65 47 -112t112 -47zM532 621h-138
l-77 75l-77 -75h-138l173 168h84z" />
    <glyph glyph-name="atilde" unicode="&#xe3;" horiz-adv-x="670" 
d="M449 0v72q-57 -86 -172 -86q-114 0 -194 82t-80 196q0 117 82 200.5t198 83.5q109 0 166 -90v76h191v-114h-67v-306h67v-114h-191zM288 105q69 0 116 48t47 117q0 66 -47.5 112.5t-113.5 46.5q-68 0 -114.5 -48.5t-46.5 -116.5q0 -65 47 -112t112 -47zM447 759l59 -81
q-51 -45 -112 -45q-29 0 -75 15t-65 15q-35 0 -67 -29l-64 90q46 37 101 37q28 0 74 -14q43 -15 72 -15q47 0 77 27z" />
    <glyph glyph-name="adieresis" unicode="&#xe4;" horiz-adv-x="670" 
d="M449 0v72q-57 -86 -172 -86q-114 0 -194 82t-80 196q0 117 82 200.5t198 83.5q109 0 166 -90v76h191v-114h-67v-306h67v-114h-191zM288 105q69 0 116 48t47 117q0 66 -47.5 112.5t-113.5 46.5q-68 0 -114.5 -48.5t-46.5 -116.5q0 -65 47 -112t112 -47zM465 714v-129h-122
v129h122zM279 714v-129h-122v129h122z" />
    <glyph glyph-name="aring" unicode="&#xe5;" horiz-adv-x="670" 
d="M449 0v72q-57 -86 -172 -86q-114 0 -194 82t-80 196q0 117 82 200.5t198 83.5q109 0 166 -90v76h191v-114h-67v-306h67v-114h-191zM288 105q69 0 116 48t47 117q0 66 -47.5 112.5t-113.5 46.5q-68 0 -114.5 -48.5t-46.5 -116.5q0 -65 47 -112t112 -47zM301 598
q-49 0 -83.5 34.5t-34.5 84.5q0 48 35 82t83 34t82 -35t34 -83t-34 -82.5t-82 -34.5zM300 668q20 0 33.5 14.5t13.5 34.5q0 19 -14 32.5t-33 13.5q-20 0 -33.5 -14.5t-13.5 -34.5q0 -19 14 -32.5t33 -13.5z" />
    <glyph glyph-name="ae" unicode="&#xe6;" horiz-adv-x="1023" 
d="M447 0v82q-25 -45 -67 -70.5t-93 -25.5q-118 0 -201 84t-83 203q0 111 81.5 194t192.5 83q105 0 170 -84v68h122v-75q62 91 172 91q113 0 193.5 -83t80.5 -195q0 -46 -3 -46h-434q10 -53 55 -87t100 -34q69 0 121 55h141q-33 -79 -104 -126.5t-156 -47.5
q-51 0 -95.5 25.5t-70.5 68.5v-80h-122zM289 105q72 0 121 48t49 120q0 66 -51 114.5t-117 48.5q-65 0 -115.5 -48.5t-50.5 -113.5q0 -70 47.5 -119.5t116.5 -49.5zM577 319h313q-16 51 -59 84t-96 33q-57 0 -98 -31.5t-60 -85.5z" />
    <glyph glyph-name="ccedilla" unicode="&#xe7;" horiz-adv-x="581" 
d="M414 180h136q-22 -76 -87.5 -129t-144.5 -62l-24 -58l13 1q40 0 67.5 -29.5t27.5 -70.5q0 -49 -32 -80.5t-81 -31.5q-45 0 -75.5 29.5t-33.5 73.5h74q9 -30 36 -30q16 0 26.5 10.5t10.5 26.5t-10.5 27.5t-26.5 11.5q-20 0 -34 -16l-60 25l44 113q-102 16 -169.5 94
t-67.5 182q0 113 78.5 198t190.5 85q91 0 153 -67v51h105v-178h-114q-22 32 -57 53q-35 20 -76 20q-68 0 -113 -47t-45 -115t47 -114.5t114 -46.5q40 0 75.5 20t52.5 54z" />
    <glyph glyph-name="egrave" unicode="&#xe8;" horiz-adv-x="564" 
d="M409 157h127q-32 -77 -100.5 -124t-151.5 -47q-117 0 -199 81t-82 198q0 119 80 202t198 83q55 0 108 -23t92 -63q75 -79 75 -200l-4 -43h-432q12 -55 57.5 -91.5t102.5 -36.5q85 0 129 64zM119 315h324q-16 57 -62 91.5t-106 34.5q-54 0 -99.5 -36.5t-56.5 -89.5z
M428 689l-41 -89l-276 125l49 108z" />
    <glyph glyph-name="eacute" unicode="&#xe9;" horiz-adv-x="564" 
d="M409 157h127q-32 -77 -100.5 -124t-151.5 -47q-117 0 -199 81t-82 198q0 119 80 202t198 83q55 0 108 -23t92 -63q75 -79 75 -200l-4 -43h-432q12 -55 57.5 -91.5t102.5 -36.5q85 0 129 64zM119 315h324q-16 57 -62 91.5t-106 34.5q-54 0 -99.5 -36.5t-56.5 -89.5z
M163 600l-42 87l265 150l53 -107z" />
    <glyph glyph-name="ecircumflex" unicode="&#xea;" horiz-adv-x="564" 
d="M409 157h127q-32 -77 -100.5 -124t-151.5 -47q-117 0 -199 81t-82 198q0 119 80 202t198 83q55 0 108 -23t92 -63q75 -79 75 -200l-4 -43h-432q12 -55 57.5 -91.5t102.5 -36.5q85 0 129 64zM119 315h324q-16 57 -62 91.5t-106 34.5q-54 0 -99.5 -36.5t-56.5 -89.5z
M491 621h-138l-77 75l-77 -75h-138l173 168h84z" />
    <glyph glyph-name="edieresis" unicode="&#xeb;" horiz-adv-x="564" 
d="M409 157h127q-32 -77 -100.5 -124t-151.5 -47q-117 0 -199 81t-82 198q0 119 80 202t198 83q55 0 108 -23t92 -63q75 -79 75 -200l-4 -43h-432q12 -55 57.5 -91.5t102.5 -36.5q85 0 129 64zM119 315h324q-16 57 -62 91.5t-106 34.5q-54 0 -99.5 -36.5t-56.5 -89.5z
M424 714v-129h-122v129h122zM238 714v-129h-122v129h122z" />
    <glyph glyph-name="igrave" unicode="&#xec;" horiz-adv-x="320" 
d="M221 534v-420h69v-114h-261v114h70v306h-69v114h191zM318 689l-41 -89l-276 125l49 108z" />
    <glyph glyph-name="iacute" unicode="&#xed;" horiz-adv-x="320" 
d="M221 534v-420h69v-114h-261v114h70v306h-69v114h191zM43 600l-42 87l265 150l53 -107z" />
    <glyph glyph-name="icircumflex" unicode="&#xee;" horiz-adv-x="320" 
d="M221 534v-420h69v-114h-261v114h70v306h-69v114h191zM371 621h-138l-77 75l-77 -75h-138l173 168h84z" />
    <glyph glyph-name="idieresis" unicode="&#xef;" horiz-adv-x="320" 
d="M221 534v-420h69v-114h-261v114h70v306h-69v114h191zM314 714v-129h-122v129h122zM128 714v-129h-122v129h122z" />
    <glyph glyph-name="eth" unicode="&#xf0;" horiz-adv-x="581" 
d="M273 590l-144 -43l-82 53l137 42q-48 23 -101 39l143 39q40 -12 87 -38l124 38l82 -57l-126 -37q170 -141 170 -356q0 -117 -82 -200.5t-199 -83.5q-116 0 -197.5 83.5t-81.5 199.5q0 117 82.5 199t199.5 82q24 0 43 -4q-27 25 -55 44zM282 106q67 0 114 47t47 114
q0 66 -46 114.5t-112 48.5t-114 -47t-48 -113q0 -67 46 -115.5t113 -48.5z" />
    <glyph glyph-name="ntilde" unicode="&#xf1;" horiz-adv-x="664" 
d="M99 114v306h-69v114h191v-76q48 88 158 88q93 0 154 -66q21 -23 31 -50.5t12 -48t2 -58.5v-209h69v-114h-260v114h69v173q0 67 -21 96q-33 43 -94 43q-64 0 -97 -45q-23 -30 -23 -112v-155h69v-114h-260v114h69zM469 759l59 -81q-51 -45 -112 -45q-29 0 -75 15t-65 15
q-35 0 -67 -29l-64 90q46 37 101 37q28 0 74 -14q43 -15 72 -15q47 0 77 27z" />
    <glyph glyph-name="ograve" unicode="&#xf2;" horiz-adv-x="571" 
d="M282 -14q-116 0 -197.5 83.5t-81.5 199.5q0 117 82.5 199t199.5 82q115 0 196.5 -82.5t81.5 -197.5q0 -117 -82 -200.5t-199 -83.5zM282 106q67 0 114 47t47 114q0 66 -46 114.5t-112 48.5t-114 -47t-48 -113q0 -67 46 -115.5t113 -48.5zM439 689l-41 -89l-276 125
l49 108z" />
    <glyph glyph-name="oacute" unicode="&#xf3;" horiz-adv-x="571" 
d="M282 -14q-116 0 -197.5 83.5t-81.5 199.5q0 117 82.5 199t199.5 82q115 0 196.5 -82.5t81.5 -197.5q0 -117 -82 -200.5t-199 -83.5zM282 106q67 0 114 47t47 114q0 66 -46 114.5t-112 48.5t-114 -47t-48 -113q0 -67 46 -115.5t113 -48.5zM164 600l-42 87l265 150l53 -107
z" />
    <glyph glyph-name="ocircumflex" unicode="&#xf4;" horiz-adv-x="571" 
d="M282 -14q-116 0 -197.5 83.5t-81.5 199.5q0 117 82.5 199t199.5 82q115 0 196.5 -82.5t81.5 -197.5q0 -117 -82 -200.5t-199 -83.5zM282 106q67 0 114 47t47 114q0 66 -46 114.5t-112 48.5t-114 -47t-48 -113q0 -67 46 -115.5t113 -48.5zM502 621h-138l-77 75l-77 -75
h-138l173 168h84z" />
    <glyph glyph-name="otilde" unicode="&#xf5;" horiz-adv-x="571" 
d="M282 -14q-116 0 -197.5 83.5t-81.5 199.5q0 117 82.5 199t199.5 82q115 0 196.5 -82.5t81.5 -197.5q0 -117 -82 -200.5t-199 -83.5zM282 106q67 0 114 47t47 114q0 66 -46 114.5t-112 48.5t-114 -47t-48 -113q0 -67 46 -115.5t113 -48.5zM417 759l59 -81
q-51 -45 -112 -45q-29 0 -75 15t-65 15q-35 0 -67 -29l-64 90q46 37 101 37q28 0 74 -14q43 -15 72 -15q47 0 77 27z" />
    <glyph glyph-name="odieresis" unicode="&#xf6;" horiz-adv-x="571" 
d="M282 -14q-116 0 -197.5 83.5t-81.5 199.5q0 117 82.5 199t199.5 82q115 0 196.5 -82.5t81.5 -197.5q0 -117 -82 -200.5t-199 -83.5zM282 106q67 0 114 47t47 114q0 66 -46 114.5t-112 48.5t-114 -47t-48 -113q0 -67 46 -115.5t113 -48.5zM425 714v-129h-122v129h122z
M239 714v-129h-122v129h122z" />
    <glyph glyph-name="divide" unicode="&#xf7;" 
d="M86 312v92h508v-92h-508zM294 576h92v-109h-92v109zM294 249h92v-109h-92v109z" />
    <glyph glyph-name="oslash" unicode="&#xf8;" horiz-adv-x="580" 
d="M156 16l-53 -71l-69 53l52 71l-7 7q-38 46 -50 72q-26 58 -26 118q0 118 84 201t203 83q75 0 131 -31l50 68l71 -54l-50 -66q80 -85 80 -190q0 -121 -81 -206t-202 -85q-60 0 -133 30zM416 363l-183 -247q36 -12 54 -12q70 0 117.5 46.5t47.5 116.5q0 50 -36 96zM162 168
l185 250q-37 14 -61 14q-69 0 -115.5 -47t-46.5 -116q0 -55 38 -101z" />
    <glyph glyph-name="ugrave" unicode="&#xf9;" horiz-adv-x="643" 
d="M554 534v-420h69v-114h-181v66q-26 -38 -69.5 -59t-91.5 -21q-91 0 -148 68q-47 55 -47 155v211h-69v114h191v-289q0 -70 21 -100q30 -46 90 -46q56 0 90 44q23 32 23 105v172h-69v114h191zM472 689l-41 -89l-276 125l49 108z" />
    <glyph glyph-name="uacute" unicode="&#xfa;" horiz-adv-x="643" 
d="M554 534v-420h69v-114h-181v66q-26 -38 -69.5 -59t-91.5 -21q-91 0 -148 68q-47 55 -47 155v211h-69v114h191v-289q0 -70 21 -100q30 -46 90 -46q56 0 90 44q23 32 23 105v172h-69v114h191zM197 600l-42 87l265 150l53 -107z" />
    <glyph glyph-name="ucircumflex" unicode="&#xfb;" horiz-adv-x="643" 
d="M554 534v-420h69v-114h-181v66q-26 -38 -69.5 -59t-91.5 -21q-91 0 -148 68q-47 55 -47 155v211h-69v114h191v-289q0 -70 21 -100q30 -46 90 -46q56 0 90 44q23 32 23 105v172h-69v114h191zM525 621h-138l-77 75l-77 -75h-138l173 168h84z" />
    <glyph glyph-name="udieresis" unicode="&#xfc;" horiz-adv-x="643" 
d="M554 534v-420h69v-114h-181v66q-26 -38 -69.5 -59t-91.5 -21q-91 0 -148 68q-47 55 -47 155v211h-69v114h191v-289q0 -70 21 -100q30 -46 90 -46q56 0 90 44q23 32 23 105v172h-69v114h191zM468 714v-129h-122v129h122zM282 714v-129h-122v129h122z" />
    <glyph glyph-name="yacute" unicode="&#xfd;" horiz-adv-x="623" 
d="M541 420l-207 -501h70v-114h-260v114h67l36 88l-162 413h-70v114h252v-114h-52l95 -261l101 261h-52v114h249v-114h-67zM191 600l-42 87l265 150l53 -107z" />
    <glyph glyph-name="thorn" unicode="&#xfe;" horiz-adv-x="673" 
d="M95 -81v681h-68v114h191v-264q58 90 175 90q113 0 192.5 -80.5t79.5 -194.5q0 -111 -78 -192t-188 -81q-117 0 -181 83v-156h69v-114h-260v114h68zM378 105q66 0 113.5 47t47.5 113t-46 114.5t-112 48.5q-68 0 -116 -47t-48 -115q0 -67 47 -114t114 -47z" />
    <glyph glyph-name="ydieresis" unicode="&#xff;" horiz-adv-x="623" 
d="M541 420l-207 -501h70v-114h-260v114h67l36 88l-162 413h-70v114h252v-114h-52l95 -261l101 261h-52v114h249v-114h-67zM462 714v-129h-122v129h122zM276 714v-129h-122v129h122z" />
    <glyph glyph-name="dotlessi" unicode="&#x131;" horiz-adv-x="320" 
d="M221 534v-420h69v-114h-261v114h70v306h-69v114h191z" />
    <glyph glyph-name="Lslash" unicode="&#x141;" horiz-adv-x="589" 
d="M43 0v114h78v182l-90 -60v92l90 59v213h-78v114h291v-114h-77v-145l133 80v-88l-133 -84v-242h171v95h135v-216h-520z" />
    <glyph glyph-name="lslash" unicode="&#x142;" horiz-adv-x="352" 
d="M305 0h-260v114h69v201l-86 -68v91l86 67v195h-65v114h187v-227l88 68v-93l-88 -68v-280h69v-114z" />
    <glyph glyph-name="OE" unicode="&#x152;" horiz-adv-x="1094" 
d="M605 0v106q-83 -120 -236 -120q-157 0 -263.5 108.5t-106.5 265.5q0 152 108 262.5t259 110.5q150 0 239 -122v103h451v-211h-136v92h-180v-180h203v-107h-203v-188h180v95h136v-215h-451zM135 356q0 -96 68 -165t164 -69q95 0 163 69.5t68 165.5q0 97 -66.5 169
t-162.5 72q-99 0 -166.5 -71t-67.5 -171z" />
    <glyph glyph-name="oe" unicode="&#x153;" horiz-adv-x="1029" 
d="M863 163h139q-33 -81 -105 -129t-161 -48q-69 0 -127.5 29t-95.5 85q-33 -55 -93.5 -84.5t-128.5 -29.5q-120 0 -204 82.5t-84 200.5q0 117 84.5 199t202.5 82q76 0 144 -40q43 -24 74 -69l5 -8q35 56 95 85.5t130 29.5q115 0 199 -81t84 -195l-4 -46h-439
q12 -54 55.5 -87t100.5 -33q78 0 129 57zM581 317h308q-20 54 -61 84t-98 30q-51 0 -93 -32.5t-56 -81.5zM287 105q69 0 118 48t49 116t-49.5 115.5t-118.5 47.5q-68 0 -117 -48.5t-49 -115.5t49.5 -115t117.5 -48z" />
    <glyph glyph-name="Scaron" unicode="&#x160;" horiz-adv-x="529" 
d="M39 212h124q0 -46 29 -77.5t77 -31.5q45 0 75 26.5t30 71.5q0 20 -8.5 36.5t-18 26t-30 19t-31 13t-34.5 10.5q-33 10 -51 15.5t-43 17.5t-46 28q-78 58 -78 156q0 87 64 146.5t152 59.5q85 0 127 -55v40h104v-192h-122q-1 40 -27 66.5t-66 26.5q-41 0 -69 -24t-28 -65
q0 -25 9 -42.5t31 -29t34 -16t43 -13.5q105 -29 153 -65q71 -57 71 -150q0 -97 -64 -160.5t-162 -63.5q-88 0 -137 61v-47h-108v212zM491 969l-174 -168h-91l-171 168h145l79 -75l74 75h138z" />
    <glyph glyph-name="scaron" unicode="&#x161;" horiz-adv-x="490" 
d="M51 155h125q3 -36 26 -58t60 -22q29 0 51 18.5t22 47.5q0 8 -1.5 15t-3.5 12t-7 10t-8 8.5t-10.5 7t-10.5 5t-12.5 5t-12 4t-13.5 3.5t-12 3q-36 9 -57 15.5t-51 20.5t-46 30.5t-28.5 43t-12.5 60.5q0 74 53 117.5t128 43.5q83 0 121 -48v37h90v-145h-118
q-1 28 -20.5 45.5t-48.5 17.5q-27 0 -47.5 -15t-20.5 -41q0 -18 7.5 -30.5t23 -20.5t26.5 -11t31 -8q35 -8 58 -15t52.5 -20.5t47 -30.5t29.5 -44t12 -62q0 -78 -56 -123t-135 -45q-88 0 -138 58v-44h-93v155zM473 789l-174 -168h-91l-171 168h145l79 -75l74 75h138z" />
    <glyph glyph-name="Ydieresis" unicode="&#x178;" horiz-adv-x="688" 
d="M413 249v-135h78v-114h-291v114h77v135l-189 351h-72v114h276v-114h-66l120 -236l119 236h-68v114h275v-114h-71zM493 894v-129h-122v129h122zM307 894v-129h-122v129h122z" />
    <glyph glyph-name="Zcaron" unicode="&#x17d;" horiz-adv-x="583" 
d="M553 217v-217h-519v107l340 488h-202v-98h-121v217h487v-103l-342 -492h232v98h125zM511 969l-174 -168h-91l-171 168h145l79 -75l74 75h138z" />
    <glyph glyph-name="zcaron" unicode="&#x17e;" horiz-adv-x="497" 
d="M43 534h410v-110l-257 -310h164v59h107v-173h-436v98l271 322h-152v-63h-107v177zM466 789l-174 -168h-91l-171 168h145l79 -75l74 75h138z" />
    <glyph glyph-name="florin" unicode="&#x192;" horiz-adv-x="600" 
d="M373 358l-58 -303q-19 -101 -76.5 -148.5t-167.5 -48.5l19 100q54 1 73.5 23t29.5 74l58 303h-70l21 106h69q1 7 9 49.5t12.5 58.5t17.5 44.5t31 48.5q64 67 188 67l-19 -99q-32 1 -53.5 -9t-31.5 -30t-14.5 -38.5t-9 -48t-8.5 -44.5h70l-20 -105h-70z" />
    <glyph glyph-name="circumflex" unicode="&#x2c6;" horiz-adv-x="600" 
d="M511 631h-138l-77 75l-77 -75h-138l173 168h84z" />
    <glyph glyph-name="caron" unicode="&#x2c7;" horiz-adv-x="600" 
d="M517 799l-174 -168h-91l-171 168h145l79 -75l74 75h138z" />
    <glyph glyph-name="uni02C9" unicode="&#x2c9;" horiz-adv-x="540" 
d="M465 735v-98h-384v98h384z" />
    <glyph glyph-name="breve" unicode="&#x2d8;" horiz-adv-x="540" 
d="M83 797h83q3 -35 36.5 -52.5t72.5 -17.5q38 0 72 17.5t37 52.5h82q1 -78 -54.5 -121t-136.5 -43t-136.5 43t-55.5 121z" />
    <glyph glyph-name="dotaccent" unicode="&#x2d9;" horiz-adv-x="280" 
d="M201 714v-129h-122v129h122z" />
    <glyph glyph-name="ring" unicode="&#x2da;" horiz-adv-x="400" 
d="M200 598q-49 0 -83.5 34.5t-34.5 84.5q0 48 35 82t83 34t82 -35t34 -83t-34 -82.5t-82 -34.5zM199 668q20 0 33.5 14.5t13.5 34.5q0 19 -14 32.5t-33 13.5q-20 0 -33.5 -14.5t-13.5 -34.5q0 -19 14 -32.5t33 -13.5z" />
    <glyph glyph-name="ogonek" unicode="&#x2db;" horiz-adv-x="360" 
d="M148 0h77q-28 -21 -28 -57q0 -27 13.5 -49.5t38.5 -22.5q8 0 26 8v-74q-35 -11 -57 -11q-49 0 -77 30.5t-28 80.5q0 57 35 95z" />
    <glyph glyph-name="tilde" unicode="&#x2dc;" horiz-adv-x="540" 
d="M406 759l59 -81q-51 -45 -112 -45q-29 0 -75 15t-65 15q-35 0 -67 -29l-64 90q46 37 101 37q28 0 74 -14q43 -15 72 -15q47 0 77 27z" />
    <glyph glyph-name="hungarumlaut" unicode="&#x2dd;" horiz-adv-x="500" 
d="M153 589l-72 29l94 222l90 -33zM310 589l-72 28l93 223l90 -33z" />
    <glyph glyph-name="uni03A9" unicode="&#x3a9;" horiz-adv-x="758" 
d="M195 99v3q-56 51 -93 126.5t-37 168.5q0 141 89 237.5t227 96.5q72 0 132 -29t97.5 -76t58.5 -105t21 -118q0 -95 -38 -173.5t-93 -127.5v-3h146v-99h-271v73q57 37 94.5 113.5t37.5 190.5q0 103 -49.5 177.5t-135.5 74.5t-138.5 -72t-52.5 -184q0 -107 38 -186.5
t94 -113.5v-73h-271v99h144z" />
    <glyph glyph-name="uni03BC" unicode="&#x3bc;" horiz-adv-x="660" 
d="M564 534v-420h69v-114h-181v66q-26 -38 -69.5 -59t-91.5 -21q-41 0 -73 14v-195h-122v615h-69v114h191v-289q0 -146 111 -146q7 0 17 1.5t28 9.5t32 21.5t25 41.5t11 65v182h-69v114h191z" />
    <glyph glyph-name="pi" unicode="&#x3c0;" horiz-adv-x="639" 
d="M604 436h-75v-282q0 -100 14 -154h-119q-18 31 -18 147v289h-151q-4 -99 -23 -231t-45 -205h-119q26 87 45 216.5t21 219.5q-69 0 -104 -11l-15 81q46 34 167 34h432z" />
    <glyph glyph-name="endash" unicode="&#x2013;" horiz-adv-x="520" 
d="M516 202h-512v121h512v-121z" />
    <glyph glyph-name="emdash" unicode="&#x2014;" horiz-adv-x="1020" 
d="M1016 202h-1012v121h1012v-121z" />
    <glyph glyph-name="quoteleft" unicode="&#x2018;" horiz-adv-x="216" 
d="M45 429v161q0 64 24 94q16 20 34 25t49 5h19v-68l-12 1q-19 0 -29 -10.5t-11.5 -21.5t-1.5 -31v-14h54v-141h-126z" />
    <glyph glyph-name="quoteright" unicode="&#x2019;" horiz-adv-x="217" 
d="M172 714v-161q0 -63 -25 -93q-16 -20 -34 -25.5t-48 -5.5h-19v68l12 -1q19 0 29 10.5t11.5 22t1.5 31.5v13h-55v141h127z" />
    <glyph glyph-name="quotesinglbase" unicode="&#x201a;" horiz-adv-x="236" 
d="M181 141v-160q0 -65 -24 -94q-16 -20 -34.5 -25.5t-48.5 -5.5h-19v68h13q19 0 28.5 10.5t11 21.5t1.5 31v13h-54v141h126z" />
    <glyph glyph-name="quotedblleft" unicode="&#x201c;" horiz-adv-x="402" 
d="M230 429v161q0 62 25 94q16 20 34 25t49 5h19v-68l-13 1q-19 0 -28.5 -10.5t-11 -21.5t-1.5 -31v-14h54v-141h-127zM45 429v161q0 23 1 34.5t6.5 28.5t17.5 31q16 19 34.5 24.5t48.5 5.5h19v-68l-13 1q-19 0 -28.5 -10.5t-11 -22t-1.5 -31.5v-13h54v-141h-127z" />
    <glyph glyph-name="quotedblright" unicode="&#x201d;" horiz-adv-x="402" 
d="M357 714v-161q0 -63 -25 -93q-16 -20 -34 -25.5t-48 -5.5h-19v68l12 -1q19 0 29 10.5t11.5 22t1.5 31.5v13h-55v141h127zM172 714v-161q0 -63 -25 -93q-16 -20 -34 -25.5t-48 -5.5h-19v68l12 -1q19 0 29 10.5t11.5 22t1.5 31.5v13h-55v141h127z" />
    <glyph glyph-name="quotedblbase" unicode="&#x201e;" horiz-adv-x="421" 
d="M366 141v-160q0 -23 -1 -35t-6.5 -29t-16.5 -30q-16 -20 -34 -25.5t-48 -5.5h-19v68h12q19 0 29 10.5t11.5 21.5t1.5 31v13h-55v141h126zM181 141v-161q0 -65 -24 -94q-16 -19 -34 -24.5t-48 -5.5h-19v68l12 -1q19 0 29 10.5t11.5 22t1.5 31.5v13h-55v141h126z" />
    <glyph glyph-name="dagger" unicode="&#x2020;" horiz-adv-x="600" 
d="M365 412v-543h-131v543h-192v95h192v207h131v-207h193v-95h-193z" />
    <glyph glyph-name="daggerdbl" unicode="&#x2021;" horiz-adv-x="600" 
d="M365 425v-104h192v-95h-192v-357h-132v357h-190v95h190v104h-190v95h190v194h132v-194h192v-95h-192z" />
    <glyph glyph-name="bullet" unicode="&#x2022;" horiz-adv-x="620" 
d="M469 536v-357h-318v357h318z" />
    <glyph glyph-name="ellipsis" unicode="&#x2026;" horiz-adv-x="1020" 
d="M240 141v-141h-126v141h126zM573 141v-141h-126v141h126zM906 141v-141h-126v141h126z" />
    <glyph glyph-name="perthousand" unicode="&#x2030;" horiz-adv-x="1300" 
d="M669 -11q-75 0 -126.5 52.5t-51.5 127.5q0 72 52 123.5t124 51.5q74 0 126.5 -51.5t52.5 -124.5q0 -74 -52 -126.5t-125 -52.5zM669 93q30 0 51 22t21 52t-21.5 52t-51.5 22t-52 -21.5t-22 -51.5q0 -31 22 -53t53 -22zM228 374q-75 0 -126.5 52.5t-51.5 127.5
q0 72 52 123.5t124 51.5q74 0 126.5 -52t52.5 -125q0 -74 -51.5 -126t-125.5 -52zM228 478q30 0 51.5 21.5t21.5 51.5q0 31 -21.5 52.5t-52.5 21.5q-30 0 -51.5 -21t-21.5 -51q0 -32 21.5 -53.5t52.5 -21.5zM1073 -11q-75 0 -126.5 52.5t-51.5 127.5q0 72 52.5 123.5
t124.5 51.5q73 0 125.5 -51.5t52.5 -124.5q0 -74 -51.5 -126.5t-125.5 -52.5zM1073 93q30 0 51.5 22t21.5 52t-21.5 52t-51.5 22t-52 -21.5t-22 -51.5q0 -31 21.5 -53t52.5 -22zM336 0h-99l322 714h98z" />
    <glyph glyph-name="guilsinglleft" unicode="&#x2039;" horiz-adv-x="220" 
d="M169 77l-123 143v95l123 142l6 -115l-64 -79l64 -78z" />
    <glyph glyph-name="guilsinglright" unicode="&#x203a;" horiz-adv-x="220" 
d="M51 77l-5 108l63 78l-63 79l5 115l124 -142v-95z" />
    <glyph glyph-name="fraction" unicode="&#x2044;" horiz-adv-x="510" 
d="M145 0h-100l322 714h98z" />
    <glyph glyph-name="Euro" unicode="&#x20ac;" horiz-adv-x="600" 
d="M393 282h-183q16 -174 126 -174q104 0 120 127h115q-31 -249 -236 -249q-53 0 -104 25.5t-88 78.5q-51 73 -64 192h-69v57h65v24q0 19 1 29h-66v57h70q17 127 80.5 205.5t169.5 78.5q100 0 135 -88v72h92v-232h-115q-18 126 -110 126q-100 0 -121 -162h182v-57h-186
q-1 -10 -1 -30v-23h187v-57z" />
    <glyph glyph-name="afii61289" unicode="&#x2113;" horiz-adv-x="548" 
d="M468 183l50 -51q-73 -142 -212 -142q-86 0 -131 48t-53 125q0 7 -1 11l-54 -43l-32 66q84 70 85 71v263q0 130 51 195t130 65q71 0 107 -50.5t36 -130.5q0 -163 -206 -361v-41q1 -58 28 -89t68 -31q75 0 134 95zM238 534v-172q128 145 128 252q0 89 -60 89
q-28 0 -48 -39.5t-20 -129.5z" />
    <glyph glyph-name="trademark" unicode="&#x2122;" horiz-adv-x="926" 
d="M876 714v-407h-63v350l-141 -350h-38l-138 350v-350h-64v407h104l116 -287l122 287h102zM360 714v-57h-129v-350h-71v350h-130v57h330z" />
    <glyph glyph-name="Omega" unicode="&#x2126;" horiz-adv-x="758" 
d="M195 99v3q-56 51 -93 126.5t-37 168.5q0 141 89 237.5t227 96.5q72 0 132 -29t97.5 -76t58.5 -105t21 -118q0 -95 -38 -173.5t-93 -127.5v-3h146v-99h-271v73q57 37 94.5 113.5t37.5 190.5q0 103 -49.5 177.5t-135.5 74.5t-138.5 -72t-52.5 -184q0 -107 38 -186.5
t94 -113.5v-73h-271v99h144z" />
    <glyph glyph-name="estimated" unicode="&#x212e;" horiz-adv-x="921" 
d="M875 349h-672q-6 0 -6 -4v-204q0 -10 9 -23q107 -110 254 -110q161 0 268 123h59q-57 -67 -143 -105.5t-185 -38.5q-171 0 -292.5 109t-121.5 263q0 155 121.5 264.5t292.5 109.5q173 0 294.5 -109.5t121.5 -264.5v-10zM722 376v204q0 15 -10 24q-108 106 -252 106
q-146 0 -253 -109q-10 -12 -10 -25v-200q0 -7 6 -7h515q4 0 4 7z" />
    <glyph glyph-name="partialdiff" unicode="&#x2202;" horiz-adv-x="611" 
d="M117 661l-36 90q79 60 188 60q119 0 200.5 -103t81.5 -290q0 -193 -76.5 -310t-211.5 -117q-101 0 -157 74.5t-56 168.5q0 121 64.5 195t158.5 74q57 0 98.5 -28.5t57.5 -57.5h2v36q0 107 -50 182t-128 75q-76 0 -136 -49zM274 92h1q57 0 95.5 66.5t48.5 154.5
q-10 32 -43.5 62t-78.5 30q-54 0 -90 -52t-36 -123q0 -59 28.5 -98.5t74.5 -39.5z" />
    <glyph glyph-name="Delta" unicode="&#x2206;" horiz-adv-x="700" 
d="M38 0v73l242 663h145l236 -662v-74h-623zM164 99h365l-120 318q-8 27 -31 95t-29 91h-3q-4 -18 -25.5 -79.5t-29.5 -90.5z" />
    <glyph glyph-name="product" unicode="&#x220f;" horiz-adv-x="765" 
d="M728 609h-107v-708h-121v708h-237v-708h-120v708h-108v111h693v-111z" />
    <glyph glyph-name="summation" unicode="&#x2211;" horiz-adv-x="598" 
d="M568 -100h-534v79l255 331l-245 325v85h507v-104h-343v-4l219 -282l-241 -313v-4h382v-113z" />
    <glyph glyph-name="minus" unicode="&#x2212;" 
d="M86 312v92h508v-92h-508z" />
    <glyph glyph-name="uni2215" unicode="&#x2215;" horiz-adv-x="100" 
d="M-59 0h-100l322 714h98z" />
    <glyph glyph-name="uni2219" unicode="&#x2219;" horiz-adv-x="320" 
d="M223 429v-141h-126v141h126z" />
    <glyph glyph-name="radical" unicode="&#x221a;" horiz-adv-x="631" 
d="M629 862l-233 -1008h-99l-156 456l-77 -30l-21 68l171 69l112 -339l20 -85l1 -1q2 9 4.5 23.5t6 35t5.5 32.5l180 779h86z" />
    <glyph glyph-name="infinity" unicode="&#x221e;" horiz-adv-x="824" 
d="M764 298v-1q0 -79 -49 -127.5t-116 -48.5q-47 0 -91 27t-95 91q-47 -57 -90.5 -87.5t-101.5 -30.5q-66 0 -113.5 48.5t-47.5 122.5q0 77 48.5 126t121.5 49q54 0 98 -30t89 -86q27 31 37.5 41.5t37.5 33.5t54 32t60 9q68 0 113 -47t45 -122zM230 188h2q27 0 56.5 18.5
t43.5 33.5t44 49q-23 31 -33.5 43t-31 32.5t-41 28.5t-44.5 8q-44 0 -70 -31t-26 -79q0 -43 28.5 -73t71.5 -30zM599 401h-2q-15 0 -30.5 -6t-27 -12.5t-26.5 -20.5t-22 -21.5t-21.5 -24.5t-17.5 -20q50 -61 81.5 -84.5t68.5 -23.5q41 0 66.5 32.5t25.5 71.5
q0 48 -26.5 78.5t-68.5 30.5z" />
    <glyph glyph-name="integral" unicode="&#x222b;" horiz-adv-x="422" 
d="M391 876l-14 -84q-18 9 -37 9q-34 0 -52 -26q-29 -35 -29 -175q0 -81 7.5 -243t7.5 -255q0 -139 -39 -207q-38 -71 -128 -71q-46 0 -78 17l16 87q24 -12 46 -12q29 0 45 22q30 39 30 163q0 93 -7.5 259t-7.5 252q0 89 14 142.5t47 87.5q42 46 116 46q34 0 63 -12z" />
    <glyph glyph-name="approxequal" unicode="&#x2248;" horiz-adv-x="592" 
d="M496 462l44 -40q-55 -105 -139 -105q-47 0 -117 42q-59 34 -91 34q-21 0 -40.5 -12.5t-30 -24.5t-27.5 -37l-45 40q24 47 63.5 75.5t86.5 28.5q9 0 18 -1t16 -2.5t16 -4.5t13.5 -5t13 -6.5t11.5 -6.5t11.5 -7t10.5 -6q3 -2 14.5 -8.5t14.5 -8l12 -6t13 -6t11.5 -4
t13.5 -3t13 -0.5q28 0 49.5 18.5t44.5 55.5zM496 272l44 -40q-56 -105 -140 -105q-28 0 -52.5 9.5t-63.5 32.5q-59 35 -91 35q-22 0 -41.5 -12.5t-29.5 -25t-27 -38.5l-45 41q24 46 64 75t85 29q12 0 24.5 -2t20.5 -4t20 -7.5t16 -7.5t16 -9t14 -8q5 -3 22 -13t24 -13
t20.5 -7t25.5 -4q29 0 49.5 18t44.5 56z" />
    <glyph glyph-name="notequal" unicode="&#x2260;" horiz-adv-x="592" 
d="M428 528l-41 -93h145v-72h-172l-63 -142h235v-71h-263l-52 -119l-56 24l42 95h-143v71h171l62 142h-233v72h260l52 116z" />
    <glyph glyph-name="lessequal" unicode="&#x2264;" horiz-adv-x="592" 
d="M529 102l-463 231v77l463 230v-83l-391 -184v-2l391 -186v-83zM533 -10h-472v73h472v-73z" />
    <glyph glyph-name="greaterequal" unicode="&#x2265;" horiz-adv-x="592" 
d="M67 640l464 -231v-77l-463 -230v83l391 185v2l-392 185v83zM531 -10h-469v73h469v-73z" />
    <glyph glyph-name="lozenge" unicode="&#x25ca;" horiz-adv-x="631" 
d="M568 359l-207 -409h-97l-201 409l206 410h97zM460 356l-123 254q-13 32 -20 60h-3q-9 -33 -20 -60l-124 -248l125 -257q12 -32 18 -57h4q12 41 18 55z" />
    <glyph glyph-name="fi" unicode="&#xfb01;" horiz-adv-x="560" 
d="M478 114h69v-114h-520v114h69v306h-69v114h69q-3 201 207 199v-107q-46 1 -67 -23t-18 -69h260v-420zM478 714v-129h-122v129h122zM356 114v306h-138v-306h138z" />
    <glyph glyph-name="fl" unicode="&#xfb02;" horiz-adv-x="560" 
d="M477 733v-619h69v-114h-519v114h69v306h-69v114h69q1 109 54.5 154t164.5 45h162zM218 420v-306h137v512h-26q-61 0 -87 -16.5t-24 -75.5h70v-114h-70z" />
    </font>
</defs>
</svg>
